<?xml version="1.0" encoding="UTF-8" standalone="no"?>
<!DOCTYPE svg PUBLIC "-//W3C//DTD SVG 1.1//EN"
 "http://www.w3.org/Graphics/SVG/1.1/DTD/svg11.dtd">
<!-- Generated by graphviz version 2.50.0 (0)
 -->
<!-- Pages: 1 -->
<svg width="520pt" height="313pt"
 viewBox="0.00 0.00 519.50 313.22" xmlns="http://www.w3.org/2000/svg" xmlns:xlink="http://www.w3.org/1999/xlink">
<g id="graph0" class="graph" transform="scale(1 1) rotate(0) translate(4 309.22)">
<polygon fill="white" stroke="transparent" points="-4,4 -4,-309.22 515.5,-309.22 515.5,4 -4,4"/>
<!-- 2837909618640 -->
<g id="node1" class="node">
<title>2837909618640</title>
<ellipse fill="none" stroke="black" cx="227.41" cy="-287.22" rx="38.19" ry="18"/>
<text text-anchor="middle" x="227.41" y="-283.52" font-family="Times New Roman,serif" font-size="14.00">Module</text>
</g>
<!-- 2837909618016 -->
<g id="node2" class="node">
<title>2837909618016</title>
<ellipse fill="none" stroke="black" cx="173.41" cy="-206.35" rx="27" ry="18"/>
<text text-anchor="middle" x="173.41" y="-202.65" font-family="Times New Roman,serif" font-size="14.00">For</text>
</g>
<!-- 2837909618640&#45;&gt;2837909618016 -->
<g id="edge1" class="edge">
<title>2837909618640&#45;&gt;2837909618016</title>
<path fill="none" stroke="black" d="M216.22,-269.88C208.66,-258.84 198.55,-244.08 190.05,-231.67"/>
<polygon fill="black" stroke="black" points="192.75,-229.41 184.21,-223.13 186.97,-233.36 192.75,-229.41"/>
</g>
<!-- 2837909618496 -->
<g id="node7" class="node">
<title>2837909618496</title>
<ellipse fill="none" stroke="black" cx="314.41" cy="-206.35" rx="62.87" ry="26.74"/>
<text text-anchor="middle" x="314.41" y="-210.15" font-family="Times New Roman,serif" font-size="14.00">FunctionDef:</text>
<text text-anchor="middle" x="314.41" y="-195.15" font-family="Times New Roman,serif" font-size="14.00">run</text>
</g>
<!-- 2837909618640&#45;&gt;2837909618496 -->
<g id="edge6" class="edge">
<title>2837909618640&#45;&gt;2837909618496</title>
<path fill="none" stroke="black" d="M244.18,-271.01C254.57,-261.6 268.27,-249.17 280.82,-237.8"/>
<polygon fill="black" stroke="black" points="283.38,-240.2 288.44,-230.89 278.68,-235.02 283.38,-240.2"/>
</g>
<!-- 2837909617728 -->
<g id="node3" class="node">
<title>2837909617728</title>
<ellipse fill="none" stroke="black" cx="30.41" cy="-116.61" rx="30.31" ry="26.74"/>
<text text-anchor="middle" x="30.41" y="-120.41" font-family="Times New Roman,serif" font-size="14.00">Call:</text>
<text text-anchor="middle" x="30.41" y="-105.41" font-family="Times New Roman,serif" font-size="14.00">run</text>
</g>
<!-- 2837909618016&#45;&gt;2837909617728 -->
<g id="edge2" class="edge">
<title>2837909618016&#45;&gt;2837909617728</title>
<path fill="none" stroke="black" d="M153.54,-193.68C132.71,-181.39 99.08,-161.36 70.41,-143.48 67.97,-141.96 65.46,-140.38 62.94,-138.78"/>
<polygon fill="black" stroke="black" points="64.75,-135.78 54.44,-133.34 60.97,-141.67 64.75,-135.78"/>
</g>
<!-- 2837909617920 -->
<g id="node4" class="node">
<title>2837909617920</title>
<ellipse fill="none" stroke="black" cx="112.41" cy="-116.61" rx="33.47" ry="26.74"/>
<text text-anchor="middle" x="112.41" y="-120.41" font-family="Times New Roman,serif" font-size="14.00">Call:</text>
<text text-anchor="middle" x="112.41" y="-105.41" font-family="Times New Roman,serif" font-size="14.00">range</text>
</g>
<!-- 2837909618016&#45;&gt;2837909617920 -->
<g id="edge3" class="edge">
<title>2837909618016&#45;&gt;2837909617920</title>
<path fill="none" stroke="black" d="M162.5,-189.66C154.61,-178.32 143.69,-162.61 134.05,-148.75"/>
<polygon fill="black" stroke="black" points="136.84,-146.63 128.26,-140.42 131.1,-150.63 136.84,-146.63"/>
</g>
<!-- 2837909617968 -->
<g id="node6" class="node">
<title>2837909617968</title>
<ellipse fill="none" stroke="black" cx="201.41" cy="-116.61" rx="37.45" ry="26.74"/>
<text text-anchor="middle" x="201.41" y="-120.41" font-family="Times New Roman,serif" font-size="14.00">Name:</text>
<text text-anchor="middle" x="201.41" y="-105.41" font-family="Times New Roman,serif" font-size="14.00">i</text>
</g>
<!-- 2837909618016&#45;&gt;2837909617968 -->
<g id="edge5" class="edge">
<title>2837909618016&#45;&gt;2837909617968</title>
<path fill="none" stroke="black" d="M178.8,-188.43C182.04,-178.3 186.28,-165.02 190.2,-152.71"/>
<polygon fill="black" stroke="black" points="193.56,-153.71 193.26,-143.12 186.89,-151.58 193.56,-153.71"/>
</g>
<!-- 2837909617824 -->
<g id="node5" class="node">
<title>2837909617824</title>
<ellipse fill="none" stroke="black" cx="112.41" cy="-26.87" rx="48.17" ry="26.74"/>
<text text-anchor="middle" x="112.41" y="-30.67" font-family="Times New Roman,serif" font-size="14.00">Constant:</text>
<text text-anchor="middle" x="112.41" y="-15.67" font-family="Times New Roman,serif" font-size="14.00">4</text>
</g>
<!-- 2837909617920&#45;&gt;2837909617824 -->
<g id="edge4" class="edge">
<title>2837909617920&#45;&gt;2837909617824</title>
<path fill="none" stroke="black" d="M112.41,-89.29C112.41,-81.32 112.41,-72.43 112.41,-63.94"/>
<polygon fill="black" stroke="black" points="115.91,-63.87 112.41,-53.87 108.91,-63.87 115.91,-63.87"/>
</g>
<!-- 2837909618160 -->
<g id="node8" class="node">
<title>2837909618160</title>
<ellipse fill="none" stroke="black" cx="287.41" cy="-116.61" rx="30.31" ry="26.74"/>
<text text-anchor="middle" x="287.41" y="-120.41" font-family="Times New Roman,serif" font-size="14.00">Call:</text>
<text text-anchor="middle" x="287.41" y="-105.41" font-family="Times New Roman,serif" font-size="14.00">left</text>
</g>
<!-- 2837909618496&#45;&gt;2837909618160 -->
<g id="edge7" class="edge">
<title>2837909618496&#45;&gt;2837909618160</title>
<path fill="none" stroke="black" d="M306.45,-179.5C303.82,-170.96 300.86,-161.32 298.06,-152.24"/>
<polygon fill="black" stroke="black" points="301.4,-151.2 295.12,-142.67 294.71,-153.26 301.4,-151.2"/>
</g>
<!-- 2837909618352 -->
<g id="node10" class="node">
<title>2837909618352</title>
<ellipse fill="none" stroke="black" cx="366.41" cy="-116.61" rx="30.31" ry="26.74"/>
<text text-anchor="middle" x="366.41" y="-120.41" font-family="Times New Roman,serif" font-size="14.00">Call:</text>
<text text-anchor="middle" x="366.41" y="-105.41" font-family="Times New Roman,serif" font-size="14.00">fd</text>
</g>
<!-- 2837909618496&#45;&gt;2837909618352 -->
<g id="edge9" class="edge">
<title>2837909618496&#45;&gt;2837909618352</title>
<path fill="none" stroke="black" d="M329.45,-179.97C335.05,-170.52 341.48,-159.66 347.4,-149.68"/>
<polygon fill="black" stroke="black" points="350.56,-151.22 352.64,-140.83 344.53,-147.65 350.56,-151.22"/>
</g>
<!-- 2837909618448 -->
<g id="node12" class="node">
<title>2837909618448</title>
<ellipse fill="none" stroke="black" cx="463.41" cy="-116.61" rx="48.19" ry="18"/>
<text text-anchor="middle" x="463.41" y="-112.91" font-family="Times New Roman,serif" font-size="14.00">arguments</text>
</g>
<!-- 2837909618496&#45;&gt;2837909618448 -->
<g id="edge11" class="edge">
<title>2837909618496&#45;&gt;2837909618448</title>
<path fill="none" stroke="black" d="M350.47,-184.11C374.61,-169.9 406.15,-151.33 429.76,-137.42"/>
<polygon fill="black" stroke="black" points="431.55,-140.43 438.39,-132.34 428,-134.4 431.55,-140.43"/>
</g>
<!-- 2837909618064 -->
<g id="node9" class="node">
<title>2837909618064</title>
<ellipse fill="none" stroke="black" cx="269.41" cy="-26.87" rx="48.17" ry="26.74"/>
<text text-anchor="middle" x="269.41" y="-30.67" font-family="Times New Roman,serif" font-size="14.00">Constant:</text>
<text text-anchor="middle" x="269.41" y="-15.67" font-family="Times New Roman,serif" font-size="14.00">90</text>
</g>
<!-- 2837909618160&#45;&gt;2837909618064 -->
<g id="edge8" class="edge">
<title>2837909618160&#45;&gt;2837909618064</title>
<path fill="none" stroke="black" d="M282.1,-89.76C280.43,-81.62 278.56,-72.48 276.77,-63.77"/>
<polygon fill="black" stroke="black" points="280.17,-62.93 274.73,-53.84 273.31,-64.34 280.17,-62.93"/>
</g>
<!-- 2837909618256 -->
<g id="node11" class="node">
<title>2837909618256</title>
<ellipse fill="none" stroke="black" cx="383.41" cy="-26.87" rx="48.17" ry="26.74"/>
<text text-anchor="middle" x="383.41" y="-30.67" font-family="Times New Roman,serif" font-size="14.00">Constant:</text>
<text text-anchor="middle" x="383.41" y="-15.67" font-family="Times New Roman,serif" font-size="14.00">100</text>
</g>
<!-- 2837909618352&#45;&gt;2837909618256 -->
<g id="edge10" class="edge">
<title>2837909618352&#45;&gt;2837909618256</title>
<path fill="none" stroke="black" d="M371.41,-89.76C372.99,-81.62 374.76,-72.48 376.45,-63.77"/>
<polygon fill="black" stroke="black" points="379.91,-64.32 378.37,-53.84 373.04,-62.99 379.91,-64.32"/>
</g>
</g>
</svg>
