<?xml version="1.0" encoding="UTF-8" standalone="no"?>
<!DOCTYPE svg PUBLIC "-//W3C//DTD SVG 1.1//EN"
 "http://www.w3.org/Graphics/SVG/1.1/DTD/svg11.dtd">
<!-- Generated by graphviz version 2.50.0 (0)
 -->
<!-- Pages: 1 -->
<svg width="218pt" height="223pt"
 viewBox="0.00 0.00 218.17 223.48" xmlns="http://www.w3.org/2000/svg" xmlns:xlink="http://www.w3.org/1999/xlink">
<g id="graph0" class="graph" transform="scale(1 1) rotate(0) translate(4 219.48)">
<polygon fill="white" stroke="transparent" points="-4,4 -4,-219.48 214.17,-219.48 214.17,4 -4,4"/>
<!-- 2540693925088 -->
<g id="node1" class="node">
<title>2540693925088</title>
<ellipse fill="none" stroke="black" cx="104.08" cy="-197.48" rx="38.19" ry="18"/>
<text text-anchor="middle" x="104.08" y="-193.78" font-family="Times New Roman,serif" font-size="14.00">Module</text>
</g>
<!-- 2540693925664 -->
<g id="node2" class="node">
<title>2540693925664</title>
<ellipse fill="none" stroke="black" cx="65.08" cy="-116.61" rx="30.31" ry="26.74"/>
<text text-anchor="middle" x="65.08" y="-120.41" font-family="Times New Roman,serif" font-size="14.00">Call:</text>
<text text-anchor="middle" x="65.08" y="-105.41" font-family="Times New Roman,serif" font-size="14.00">left</text>
</g>
<!-- 2540693925088&#45;&gt;2540693925664 -->
<g id="edge1" class="edge">
<title>2540693925088&#45;&gt;2540693925664</title>
<path fill="none" stroke="black" d="M95.81,-179.75C91.6,-171.24 86.33,-160.58 81.35,-150.5"/>
<polygon fill="black" stroke="black" points="84.46,-148.91 76.89,-141.49 78.19,-152.01 84.46,-148.91"/>
</g>
<!-- 2540693925856 -->
<g id="node4" class="node">
<title>2540693925856</title>
<ellipse fill="none" stroke="black" cx="153.08" cy="-116.61" rx="30.31" ry="26.74"/>
<text text-anchor="middle" x="153.08" y="-120.41" font-family="Times New Roman,serif" font-size="14.00">Call:</text>
<text text-anchor="middle" x="153.08" y="-105.41" font-family="Times New Roman,serif" font-size="14.00">fd</text>
</g>
<!-- 2540693925088&#45;&gt;2540693925856 -->
<g id="edge3" class="edge">
<title>2540693925088&#45;&gt;2540693925856</title>
<path fill="none" stroke="black" d="M114.47,-179.75C120.01,-170.85 126.99,-159.61 133.5,-149.14"/>
<polygon fill="black" stroke="black" points="136.5,-150.94 138.8,-140.59 130.55,-147.24 136.5,-150.94"/>
</g>
<!-- 2540693925472 -->
<g id="node3" class="node">
<title>2540693925472</title>
<ellipse fill="none" stroke="black" cx="48.08" cy="-26.87" rx="48.17" ry="26.74"/>
<text text-anchor="middle" x="48.08" y="-30.67" font-family="Times New Roman,serif" font-size="14.00">Constant:</text>
<text text-anchor="middle" x="48.08" y="-15.67" font-family="Times New Roman,serif" font-size="14.00">90</text>
</g>
<!-- 2540693925664&#45;&gt;2540693925472 -->
<g id="edge2" class="edge">
<title>2540693925664&#45;&gt;2540693925472</title>
<path fill="none" stroke="black" d="M60.07,-89.76C58.5,-81.62 56.73,-72.48 55.04,-63.77"/>
<polygon fill="black" stroke="black" points="58.45,-62.99 53.11,-53.84 51.58,-64.32 58.45,-62.99"/>
</g>
<!-- 2540693925760 -->
<g id="node5" class="node">
<title>2540693925760</title>
<ellipse fill="none" stroke="black" cx="162.08" cy="-26.87" rx="48.17" ry="26.74"/>
<text text-anchor="middle" x="162.08" y="-30.67" font-family="Times New Roman,serif" font-size="14.00">Constant:</text>
<text text-anchor="middle" x="162.08" y="-15.67" font-family="Times New Roman,serif" font-size="14.00">100</text>
</g>
<!-- 2540693925856&#45;&gt;2540693925760 -->
<g id="edge4" class="edge">
<title>2540693925856&#45;&gt;2540693925760</title>
<path fill="none" stroke="black" d="M155.73,-89.76C156.56,-81.71 157.49,-72.68 158.37,-64.06"/>
<polygon fill="black" stroke="black" points="161.88,-64.14 159.42,-53.84 154.92,-63.43 161.88,-64.14"/>
</g>
</g>
</svg>
