<?xml version="1.0" encoding="UTF-8" standalone="no"?>
<!DOCTYPE svg PUBLIC "-//W3C//DTD SVG 1.1//EN"
 "http://www.w3.org/Graphics/SVG/1.1/DTD/svg11.dtd">
<!-- Generated by graphviz version 2.50.0 (0)
 -->
<!-- Pages: 1 -->
<svg width="574pt" height="260pt"
 viewBox="0.00 0.00 574.00 260.00" xmlns="http://www.w3.org/2000/svg" xmlns:xlink="http://www.w3.org/1999/xlink">
<g id="graph0" class="graph" transform="scale(1 1) rotate(0) translate(4 256)">
<polygon fill="white" stroke="transparent" points="-4,4 -4,-256 570,-256 570,4 -4,4"/>
<!-- 2263097589712 -->
<g id="node1" class="node">
<title>2263097589712</title>
<ellipse fill="none" stroke="black" cx="395" cy="-234" rx="38.19" ry="18"/>
<text text-anchor="middle" x="395" y="-230.3" font-family="Times New Roman,serif" font-size="14.00">Module</text>
</g>
<!-- 2263097588752 -->
<g id="node2" class="node">
<title>2263097588752</title>
<ellipse fill="none" stroke="black" cx="175" cy="-162" rx="27" ry="18"/>
<text text-anchor="middle" x="175" y="-158.3" font-family="Times New Roman,serif" font-size="14.00">For</text>
</g>
<!-- 2263097589712&#45;&gt;2263097588752 -->
<g id="edge1" class="edge">
<title>2263097589712&#45;&gt;2263097588752</title>
<path fill="none" stroke="black" d="M363.95,-223.12C322.83,-210.04 250.6,-187.05 208.35,-173.61"/>
<polygon fill="black" stroke="black" points="209.39,-170.27 198.8,-170.57 207.27,-176.94 209.39,-170.27"/>
</g>
<!-- 2263097588896 -->
<g id="node10" class="node">
<title>2263097588896</title>
<ellipse fill="none" stroke="black" cx="323" cy="-162" rx="27" ry="18"/>
<text text-anchor="middle" x="323" y="-158.3" font-family="Times New Roman,serif" font-size="14.00">left</text>
</g>
<!-- 2263097589712&#45;&gt;2263097588896 -->
<g id="edge9" class="edge">
<title>2263097589712&#45;&gt;2263097588896</title>
<path fill="none" stroke="black" d="M379.02,-217.46C369.06,-207.78 356.09,-195.17 345.15,-184.53"/>
<polygon fill="black" stroke="black" points="347.56,-182 337.95,-177.54 342.68,-187.02 347.56,-182"/>
</g>
<!-- 2263097589088 -->
<g id="node12" class="node">
<title>2263097589088</title>
<ellipse fill="none" stroke="black" cx="395" cy="-162" rx="27" ry="18"/>
<text text-anchor="middle" x="395" y="-158.3" font-family="Times New Roman,serif" font-size="14.00">fd</text>
</g>
<!-- 2263097589712&#45;&gt;2263097589088 -->
<g id="edge11" class="edge">
<title>2263097589712&#45;&gt;2263097589088</title>
<path fill="none" stroke="black" d="M395,-215.7C395,-207.98 395,-198.71 395,-190.11"/>
<polygon fill="black" stroke="black" points="398.5,-190.1 395,-180.1 391.5,-190.1 398.5,-190.1"/>
</g>
<!-- 2263097589280 -->
<g id="node14" class="node">
<title>2263097589280</title>
<ellipse fill="none" stroke="black" cx="467" cy="-162" rx="27" ry="18"/>
<text text-anchor="middle" x="467" y="-158.3" font-family="Times New Roman,serif" font-size="14.00">left</text>
</g>
<!-- 2263097589712&#45;&gt;2263097589280 -->
<g id="edge13" class="edge">
<title>2263097589712&#45;&gt;2263097589280</title>
<path fill="none" stroke="black" d="M410.98,-217.46C420.94,-207.78 433.91,-195.17 444.85,-184.53"/>
<polygon fill="black" stroke="black" points="447.32,-187.02 452.05,-177.54 442.44,-182 447.32,-187.02"/>
</g>
<!-- 2263097589472 -->
<g id="node16" class="node">
<title>2263097589472</title>
<ellipse fill="none" stroke="black" cx="539" cy="-162" rx="27" ry="18"/>
<text text-anchor="middle" x="539" y="-158.3" font-family="Times New Roman,serif" font-size="14.00">fd</text>
</g>
<!-- 2263097589712&#45;&gt;2263097589472 -->
<g id="edge15" class="edge">
<title>2263097589712&#45;&gt;2263097589472</title>
<path fill="none" stroke="black" d="M420.74,-220.49C445.39,-208.51 482.56,-190.44 508.64,-177.76"/>
<polygon fill="black" stroke="black" points="510.23,-180.88 517.7,-173.36 507.17,-174.58 510.23,-180.88"/>
</g>
<!-- 2263097587936 -->
<g id="node3" class="node">
<title>2263097587936</title>
<ellipse fill="orange" stroke="orange" cx="27" cy="-90" rx="27" ry="18"/>
<text text-anchor="middle" x="27" y="-86.3" font-family="Times New Roman,serif" font-size="14.00">left</text>
</g>
<!-- 2263097588752&#45;&gt;2263097587936 -->
<g id="edge2" class="edge">
<title>2263097588752&#45;&gt;2263097587936</title>
<path fill="none" stroke="black" d="M153.48,-150.82C128.27,-138.9 86.32,-119.06 57.7,-105.52"/>
<polygon fill="black" stroke="black" points="59.08,-102.3 48.55,-101.19 56.09,-108.63 59.08,-102.3"/>
</g>
<!-- 2263097588464 -->
<g id="node5" class="node">
<title>2263097588464</title>
<ellipse fill="none" stroke="black" cx="99" cy="-90" rx="27" ry="18"/>
<text text-anchor="middle" x="99" y="-86.3" font-family="Times New Roman,serif" font-size="14.00">fd</text>
</g>
<!-- 2263097588752&#45;&gt;2263097588464 -->
<g id="edge4" class="edge">
<title>2263097588752&#45;&gt;2263097588464</title>
<path fill="none" stroke="black" d="M159.62,-146.83C148.8,-136.87 134.14,-123.37 121.95,-112.14"/>
<polygon fill="black" stroke="black" points="124.08,-109.34 114.36,-105.14 119.34,-114.49 124.08,-109.34"/>
</g>
<!-- 2263097588656 -->
<g id="node7" class="node">
<title>2263097588656</title>
<ellipse fill="none" stroke="black" cx="175" cy="-90" rx="30.59" ry="18"/>
<text text-anchor="middle" x="175" y="-86.3" font-family="Times New Roman,serif" font-size="14.00">range</text>
</g>
<!-- 2263097588752&#45;&gt;2263097588656 -->
<g id="edge6" class="edge">
<title>2263097588752&#45;&gt;2263097588656</title>
<path fill="none" stroke="black" d="M175,-143.7C175,-135.98 175,-126.71 175,-118.11"/>
<polygon fill="black" stroke="black" points="178.5,-118.1 175,-108.1 171.5,-118.1 178.5,-118.1"/>
</g>
<!-- 2263097588704 -->
<g id="node9" class="node">
<title>2263097588704</title>
<ellipse fill="none" stroke="black" cx="251" cy="-90" rx="27" ry="18"/>
<text text-anchor="middle" x="251" y="-86.3" font-family="Times New Roman,serif" font-size="14.00">i</text>
</g>
<!-- 2263097588752&#45;&gt;2263097588704 -->
<g id="edge8" class="edge">
<title>2263097588752&#45;&gt;2263097588704</title>
<path fill="none" stroke="black" d="M190.38,-146.83C201.2,-136.87 215.86,-123.37 228.05,-112.14"/>
<polygon fill="black" stroke="black" points="230.66,-114.49 235.64,-105.14 225.92,-109.34 230.66,-114.49"/>
</g>
<!-- 2263097587840 -->
<g id="node4" class="node">
<title>2263097587840</title>
<ellipse fill="orange" stroke="orange" cx="27" cy="-18" rx="27" ry="18"/>
<text text-anchor="middle" x="27" y="-14.3" font-family="Times New Roman,serif" font-size="14.00">91</text>
</g>
<!-- 2263097587936&#45;&gt;2263097587840 -->
<g id="edge3" class="edge">
<title>2263097587936&#45;&gt;2263097587840</title>
<path fill="none" stroke="black" d="M27,-71.7C27,-63.98 27,-54.71 27,-46.11"/>
<polygon fill="black" stroke="black" points="30.5,-46.1 27,-36.1 23.5,-46.1 30.5,-46.1"/>
</g>
<!-- 2263097588032 -->
<g id="node6" class="node">
<title>2263097588032</title>
<ellipse fill="none" stroke="black" cx="99" cy="-18" rx="27" ry="18"/>
<text text-anchor="middle" x="99" y="-14.3" font-family="Times New Roman,serif" font-size="14.00">100</text>
</g>
<!-- 2263097588464&#45;&gt;2263097588032 -->
<g id="edge5" class="edge">
<title>2263097588464&#45;&gt;2263097588032</title>
<path fill="none" stroke="black" d="M99,-71.7C99,-63.98 99,-54.71 99,-46.11"/>
<polygon fill="black" stroke="black" points="102.5,-46.1 99,-36.1 95.5,-46.1 102.5,-46.1"/>
</g>
<!-- 2263097588560 -->
<g id="node8" class="node">
<title>2263097588560</title>
<ellipse fill="none" stroke="black" cx="175" cy="-18" rx="27" ry="18"/>
<text text-anchor="middle" x="175" y="-14.3" font-family="Times New Roman,serif" font-size="14.00">50</text>
</g>
<!-- 2263097588656&#45;&gt;2263097588560 -->
<g id="edge7" class="edge">
<title>2263097588656&#45;&gt;2263097588560</title>
<path fill="none" stroke="black" d="M175,-71.7C175,-63.98 175,-54.71 175,-46.11"/>
<polygon fill="black" stroke="black" points="178.5,-46.1 175,-36.1 171.5,-46.1 178.5,-46.1"/>
</g>
<!-- 2263097588800 -->
<g id="node11" class="node">
<title>2263097588800</title>
<ellipse fill="none" stroke="black" cx="323" cy="-90" rx="27" ry="18"/>
<text text-anchor="middle" x="323" y="-86.3" font-family="Times New Roman,serif" font-size="14.00">91</text>
</g>
<!-- 2263097588896&#45;&gt;2263097588800 -->
<g id="edge10" class="edge">
<title>2263097588896&#45;&gt;2263097588800</title>
<path fill="none" stroke="black" d="M323,-143.7C323,-135.98 323,-126.71 323,-118.11"/>
<polygon fill="black" stroke="black" points="326.5,-118.1 323,-108.1 319.5,-118.1 326.5,-118.1"/>
</g>
<!-- 2263097588992 -->
<g id="node13" class="node">
<title>2263097588992</title>
<ellipse fill="none" stroke="black" cx="395" cy="-90" rx="27" ry="18"/>
<text text-anchor="middle" x="395" y="-86.3" font-family="Times New Roman,serif" font-size="14.00">100</text>
</g>
<!-- 2263097589088&#45;&gt;2263097588992 -->
<g id="edge12" class="edge">
<title>2263097589088&#45;&gt;2263097588992</title>
<path fill="none" stroke="black" d="M395,-143.7C395,-135.98 395,-126.71 395,-118.11"/>
<polygon fill="black" stroke="black" points="398.5,-118.1 395,-108.1 391.5,-118.1 398.5,-118.1"/>
</g>
<!-- 2263097589184 -->
<g id="node15" class="node">
<title>2263097589184</title>
<ellipse fill="none" stroke="black" cx="467" cy="-90" rx="27" ry="18"/>
<text text-anchor="middle" x="467" y="-86.3" font-family="Times New Roman,serif" font-size="14.00">91</text>
</g>
<!-- 2263097589280&#45;&gt;2263097589184 -->
<g id="edge14" class="edge">
<title>2263097589280&#45;&gt;2263097589184</title>
<path fill="none" stroke="black" d="M467,-143.7C467,-135.98 467,-126.71 467,-118.11"/>
<polygon fill="black" stroke="black" points="470.5,-118.1 467,-108.1 463.5,-118.1 470.5,-118.1"/>
</g>
<!-- 2263097589376 -->
<g id="node17" class="node">
<title>2263097589376</title>
<ellipse fill="none" stroke="black" cx="539" cy="-90" rx="27" ry="18"/>
<text text-anchor="middle" x="539" y="-86.3" font-family="Times New Roman,serif" font-size="14.00">100</text>
</g>
<!-- 2263097589472&#45;&gt;2263097589376 -->
<g id="edge16" class="edge">
<title>2263097589472&#45;&gt;2263097589376</title>
<path fill="none" stroke="black" d="M539,-143.7C539,-135.98 539,-126.71 539,-118.11"/>
<polygon fill="black" stroke="black" points="542.5,-118.1 539,-108.1 535.5,-118.1 542.5,-118.1"/>
</g>
</g>
</svg>
