<?xml version="1.0" encoding="UTF-8" standalone="no"?>
<!DOCTYPE svg PUBLIC "-//W3C//DTD SVG 1.1//EN"
 "http://www.w3.org/Graphics/SVG/1.1/DTD/svg11.dtd">
<!-- Generated by graphviz version 2.50.0 (0)
 -->
<!-- Pages: 1 -->
<svg width="430pt" height="260pt"
 viewBox="0.00 0.00 430.30 260.00" xmlns="http://www.w3.org/2000/svg" xmlns:xlink="http://www.w3.org/1999/xlink">
<g id="graph0" class="graph" transform="scale(1 1) rotate(0) translate(4 256)">
<polygon fill="white" stroke="transparent" points="-4,4 -4,-256 426.3,-256 426.3,4 -4,4"/>
<!-- 1845512994768 -->
<g id="node1" class="node">
<title>1845512994768</title>
<ellipse fill="none" stroke="black" cx="99.3" cy="-234" rx="38.19" ry="18"/>
<text text-anchor="middle" x="99.3" y="-230.3" font-family="Times New Roman,serif" font-size="14.00">Module</text>
</g>
<!-- 1845517390352 -->
<g id="node2" class="node">
<title>1845517390352</title>
<ellipse fill="none" stroke="black" cx="27.3" cy="-162" rx="27.1" ry="18"/>
<text text-anchor="middle" x="27.3" y="-158.3" font-family="Times New Roman,serif" font-size="14.00">right</text>
</g>
<!-- 1845512994768&#45;&gt;1845517390352 -->
<g id="edge1" class="edge">
<title>1845512994768&#45;&gt;1845517390352</title>
<path fill="none" stroke="black" d="M83.32,-217.46C73.35,-207.78 60.39,-195.17 49.44,-184.53"/>
<polygon fill="black" stroke="black" points="51.86,-182 42.25,-177.54 46.98,-187.02 51.86,-182"/>
</g>
<!-- 1845517390544 -->
<g id="node4" class="node">
<title>1845517390544</title>
<ellipse fill="orange" stroke="orange" cx="99.3" cy="-162" rx="27" ry="18"/>
<text text-anchor="middle" x="99.3" y="-158.3" font-family="Times New Roman,serif" font-size="14.00">fd</text>
</g>
<!-- 1845512994768&#45;&gt;1845517390544 -->
<g id="edge3" class="edge">
<title>1845512994768&#45;&gt;1845517390544</title>
<path fill="none" stroke="black" d="M99.3,-215.7C99.3,-207.98 99.3,-198.71 99.3,-190.11"/>
<polygon fill="black" stroke="black" points="102.8,-190.1 99.3,-180.1 95.8,-190.1 102.8,-190.1"/>
</g>
<!-- 1845512992800 -->
<g id="node6" class="node">
<title>1845512992800</title>
<ellipse fill="none" stroke="black" cx="243.3" cy="-162" rx="27" ry="18"/>
<text text-anchor="middle" x="243.3" y="-158.3" font-family="Times New Roman,serif" font-size="14.00">For</text>
</g>
<!-- 1845512994768&#45;&gt;1845512992800 -->
<g id="edge5" class="edge">
<title>1845512994768&#45;&gt;1845512992800</title>
<path fill="none" stroke="black" d="M125.04,-220.49C149.68,-208.51 186.86,-190.44 212.93,-177.76"/>
<polygon fill="black" stroke="black" points="214.53,-180.88 221.99,-173.36 211.47,-174.58 214.53,-180.88"/>
</g>
<!-- 1845517390256 -->
<g id="node3" class="node">
<title>1845517390256</title>
<ellipse fill="none" stroke="black" cx="27.3" cy="-90" rx="27" ry="18"/>
<text text-anchor="middle" x="27.3" y="-86.3" font-family="Times New Roman,serif" font-size="14.00">144</text>
</g>
<!-- 1845517390352&#45;&gt;1845517390256 -->
<g id="edge2" class="edge">
<title>1845517390352&#45;&gt;1845517390256</title>
<path fill="none" stroke="black" d="M27.3,-143.7C27.3,-135.98 27.3,-126.71 27.3,-118.11"/>
<polygon fill="black" stroke="black" points="30.8,-118.1 27.3,-108.1 23.8,-118.1 30.8,-118.1"/>
</g>
<!-- 1845517390448 -->
<g id="node5" class="node">
<title>1845517390448</title>
<ellipse fill="orange" stroke="orange" cx="99.3" cy="-90" rx="27" ry="18"/>
<text text-anchor="middle" x="99.3" y="-86.3" font-family="Times New Roman,serif" font-size="14.00">100</text>
</g>
<!-- 1845517390544&#45;&gt;1845517390448 -->
<g id="edge4" class="edge">
<title>1845517390544&#45;&gt;1845517390448</title>
<path fill="none" stroke="black" d="M99.3,-143.7C99.3,-135.98 99.3,-126.71 99.3,-118.11"/>
<polygon fill="black" stroke="black" points="102.8,-118.1 99.3,-108.1 95.8,-118.1 102.8,-118.1"/>
</g>
<!-- 1845517390736 -->
<g id="node7" class="node">
<title>1845517390736</title>
<ellipse fill="none" stroke="black" cx="171.3" cy="-90" rx="27" ry="18"/>
<text text-anchor="middle" x="171.3" y="-86.3" font-family="Times New Roman,serif" font-size="14.00">left</text>
</g>
<!-- 1845512992800&#45;&gt;1845517390736 -->
<g id="edge6" class="edge">
<title>1845512992800&#45;&gt;1845517390736</title>
<path fill="none" stroke="black" d="M228.73,-146.83C218.55,-136.94 204.77,-123.55 193.27,-112.36"/>
<polygon fill="black" stroke="black" points="195.7,-109.85 186.09,-105.38 190.82,-114.87 195.7,-109.85"/>
</g>
<!-- 1845512992464 -->
<g id="node9" class="node">
<title>1845512992464</title>
<ellipse fill="none" stroke="black" cx="243.3" cy="-90" rx="27" ry="18"/>
<text text-anchor="middle" x="243.3" y="-86.3" font-family="Times New Roman,serif" font-size="14.00">fd</text>
</g>
<!-- 1845512992800&#45;&gt;1845512992464 -->
<g id="edge8" class="edge">
<title>1845512992800&#45;&gt;1845512992464</title>
<path fill="none" stroke="black" d="M243.3,-143.7C243.3,-135.98 243.3,-126.71 243.3,-118.11"/>
<polygon fill="black" stroke="black" points="246.8,-118.1 243.3,-108.1 239.8,-118.1 246.8,-118.1"/>
</g>
<!-- 1845512992416 -->
<g id="node11" class="node">
<title>1845512992416</title>
<ellipse fill="none" stroke="black" cx="319.3" cy="-90" rx="30.59" ry="18"/>
<text text-anchor="middle" x="319.3" y="-86.3" font-family="Times New Roman,serif" font-size="14.00">range</text>
</g>
<!-- 1845512992800&#45;&gt;1845512992416 -->
<g id="edge10" class="edge">
<title>1845512992800&#45;&gt;1845512992416</title>
<path fill="none" stroke="black" d="M258.68,-146.83C269.35,-137 283.77,-123.72 295.87,-112.58"/>
<polygon fill="black" stroke="black" points="298.43,-114.98 303.42,-105.63 293.69,-109.83 298.43,-114.98"/>
</g>
<!-- 1845512992752 -->
<g id="node13" class="node">
<title>1845512992752</title>
<ellipse fill="none" stroke="black" cx="395.3" cy="-90" rx="27" ry="18"/>
<text text-anchor="middle" x="395.3" y="-86.3" font-family="Times New Roman,serif" font-size="14.00">i</text>
</g>
<!-- 1845512992800&#45;&gt;1845512992752 -->
<g id="edge12" class="edge">
<title>1845512992800&#45;&gt;1845512992752</title>
<path fill="none" stroke="black" d="M265.14,-151.12C288.49,-140.53 326.57,-123.2 359.3,-108 361.08,-107.17 362.92,-106.31 364.77,-105.45"/>
<polygon fill="black" stroke="black" points="366.44,-108.53 374,-101.11 363.46,-102.2 366.44,-108.53"/>
</g>
<!-- 1845517390640 -->
<g id="node8" class="node">
<title>1845517390640</title>
<ellipse fill="none" stroke="black" cx="171.3" cy="-18" rx="27" ry="18"/>
<text text-anchor="middle" x="171.3" y="-14.3" font-family="Times New Roman,serif" font-size="14.00">91</text>
</g>
<!-- 1845517390736&#45;&gt;1845517390640 -->
<g id="edge7" class="edge">
<title>1845517390736&#45;&gt;1845517390640</title>
<path fill="none" stroke="black" d="M171.3,-71.7C171.3,-63.98 171.3,-54.71 171.3,-46.11"/>
<polygon fill="black" stroke="black" points="174.8,-46.1 171.3,-36.1 167.8,-46.1 174.8,-46.1"/>
</g>
<!-- 1845517390832 -->
<g id="node10" class="node">
<title>1845517390832</title>
<ellipse fill="none" stroke="black" cx="243.3" cy="-18" rx="27" ry="18"/>
<text text-anchor="middle" x="243.3" y="-14.3" font-family="Times New Roman,serif" font-size="14.00">100</text>
</g>
<!-- 1845512992464&#45;&gt;1845517390832 -->
<g id="edge9" class="edge">
<title>1845512992464&#45;&gt;1845517390832</title>
<path fill="none" stroke="black" d="M243.3,-71.7C243.3,-63.98 243.3,-54.71 243.3,-46.11"/>
<polygon fill="black" stroke="black" points="246.8,-46.1 243.3,-36.1 239.8,-46.1 246.8,-46.1"/>
</g>
<!-- 1845512992704 -->
<g id="node12" class="node">
<title>1845512992704</title>
<ellipse fill="none" stroke="black" cx="319.3" cy="-18" rx="27" ry="18"/>
<text text-anchor="middle" x="319.3" y="-14.3" font-family="Times New Roman,serif" font-size="14.00">100</text>
</g>
<!-- 1845512992416&#45;&gt;1845512992704 -->
<g id="edge11" class="edge">
<title>1845512992416&#45;&gt;1845512992704</title>
<path fill="none" stroke="black" d="M319.3,-71.7C319.3,-63.98 319.3,-54.71 319.3,-46.11"/>
<polygon fill="black" stroke="black" points="322.8,-46.1 319.3,-36.1 315.8,-46.1 322.8,-46.1"/>
</g>
</g>
</svg>
