<?xml version="1.0" encoding="UTF-8" standalone="no"?>
<!DOCTYPE svg PUBLIC "-//W3C//DTD SVG 1.1//EN"
 "http://www.w3.org/Graphics/SVG/1.1/DTD/svg11.dtd">
<!-- Generated by graphviz version 2.50.0 (0)
 -->
<!-- Pages: 1 -->
<svg width="214pt" height="260pt"
 viewBox="0.00 0.00 214.00 260.00" xmlns="http://www.w3.org/2000/svg" xmlns:xlink="http://www.w3.org/1999/xlink">
<g id="graph0" class="graph" transform="scale(1 1) rotate(0) translate(4 256)">
<polygon fill="white" stroke="transparent" points="-4,4 -4,-256 210,-256 210,4 -4,4"/>
<!-- 1295025486096 -->
<g id="node1" class="node">
<title>1295025486096</title>
<ellipse fill="none" stroke="black" cx="103" cy="-234" rx="38.19" ry="18"/>
<text text-anchor="middle" x="103" y="-230.3" font-family="Times New Roman,serif" font-size="14.00">Module</text>
</g>
<!-- 1295025485952 -->
<g id="node2" class="node">
<title>1295025485952</title>
<ellipse fill="none" stroke="black" cx="103" cy="-162" rx="27" ry="18"/>
<text text-anchor="middle" x="103" y="-158.3" font-family="Times New Roman,serif" font-size="14.00">For</text>
</g>
<!-- 1295025486096&#45;&gt;1295025485952 -->
<g id="edge1" class="edge">
<title>1295025486096&#45;&gt;1295025485952</title>
<path fill="none" stroke="black" d="M103,-215.7C103,-207.98 103,-198.71 103,-190.11"/>
<polygon fill="black" stroke="black" points="106.5,-190.1 103,-180.1 99.5,-190.1 106.5,-190.1"/>
</g>
<!-- 1295025485664 -->
<g id="node3" class="node">
<title>1295025485664</title>
<ellipse fill="orange" stroke="orange" cx="27" cy="-90" rx="27" ry="18"/>
<text text-anchor="middle" x="27" y="-86.3" font-family="Times New Roman,serif" font-size="14.00">fd</text>
</g>
<!-- 1295025485952&#45;&gt;1295025485664 -->
<g id="edge2" class="edge">
<title>1295025485952&#45;&gt;1295025485664</title>
<path fill="none" stroke="black" d="M87.62,-146.83C76.8,-136.87 62.14,-123.37 49.95,-112.14"/>
<polygon fill="black" stroke="black" points="52.08,-109.34 42.36,-105.14 47.34,-114.49 52.08,-109.34"/>
</g>
<!-- 1295025485856 -->
<g id="node5" class="node">
<title>1295025485856</title>
<ellipse fill="none" stroke="black" cx="103" cy="-90" rx="30.59" ry="18"/>
<text text-anchor="middle" x="103" y="-86.3" font-family="Times New Roman,serif" font-size="14.00">range</text>
</g>
<!-- 1295025485952&#45;&gt;1295025485856 -->
<g id="edge4" class="edge">
<title>1295025485952&#45;&gt;1295025485856</title>
<path fill="none" stroke="black" d="M103,-143.7C103,-135.98 103,-126.71 103,-118.11"/>
<polygon fill="black" stroke="black" points="106.5,-118.1 103,-108.1 99.5,-118.1 106.5,-118.1"/>
</g>
<!-- 1295025485904 -->
<g id="node7" class="node">
<title>1295025485904</title>
<ellipse fill="none" stroke="black" cx="179" cy="-90" rx="27" ry="18"/>
<text text-anchor="middle" x="179" y="-86.3" font-family="Times New Roman,serif" font-size="14.00">i</text>
</g>
<!-- 1295025485952&#45;&gt;1295025485904 -->
<g id="edge6" class="edge">
<title>1295025485952&#45;&gt;1295025485904</title>
<path fill="none" stroke="black" d="M118.38,-146.83C129.2,-136.87 143.86,-123.37 156.05,-112.14"/>
<polygon fill="black" stroke="black" points="158.66,-114.49 163.64,-105.14 153.92,-109.34 158.66,-114.49"/>
</g>
<!-- 1295025485568 -->
<g id="node4" class="node">
<title>1295025485568</title>
<ellipse fill="orange" stroke="orange" cx="27" cy="-18" rx="27" ry="18"/>
<text text-anchor="middle" x="27" y="-14.3" font-family="Times New Roman,serif" font-size="14.00">100</text>
</g>
<!-- 1295025485664&#45;&gt;1295025485568 -->
<g id="edge3" class="edge">
<title>1295025485664&#45;&gt;1295025485568</title>
<path fill="none" stroke="black" d="M27,-71.7C27,-63.98 27,-54.71 27,-46.11"/>
<polygon fill="black" stroke="black" points="30.5,-46.1 27,-36.1 23.5,-46.1 30.5,-46.1"/>
</g>
<!-- 1295025485760 -->
<g id="node6" class="node">
<title>1295025485760</title>
<ellipse fill="none" stroke="black" cx="103" cy="-18" rx="27" ry="18"/>
<text text-anchor="middle" x="103" y="-14.3" font-family="Times New Roman,serif" font-size="14.00">4</text>
</g>
<!-- 1295025485856&#45;&gt;1295025485760 -->
<g id="edge5" class="edge">
<title>1295025485856&#45;&gt;1295025485760</title>
<path fill="none" stroke="black" d="M103,-71.7C103,-63.98 103,-54.71 103,-46.11"/>
<polygon fill="black" stroke="black" points="106.5,-46.1 103,-36.1 99.5,-46.1 106.5,-46.1"/>
</g>
</g>
</svg>
