<?xml version="1.0" encoding="UTF-8" standalone="no"?>
<!DOCTYPE svg PUBLIC "-//W3C//DTD SVG 1.1//EN"
 "http://www.w3.org/Graphics/SVG/1.1/DTD/svg11.dtd">
<!-- Generated by graphviz version 2.50.0 (0)
 -->
<!-- Pages: 1 -->
<svg width="286pt" height="260pt"
 viewBox="0.00 0.00 286.00 260.00" xmlns="http://www.w3.org/2000/svg" xmlns:xlink="http://www.w3.org/1999/xlink">
<g id="graph0" class="graph" transform="scale(1 1) rotate(0) translate(4 256)">
<polygon fill="white" stroke="transparent" points="-4,4 -4,-256 282,-256 282,4 -4,4"/>
<!-- 2137678199056 -->
<g id="node1" class="node">
<title>2137678199056</title>
<ellipse fill="none" stroke="black" cx="137" cy="-234" rx="38.19" ry="18"/>
<text text-anchor="middle" x="137" y="-230.3" font-family="Times New Roman,serif" font-size="14.00">Module</text>
</g>
<!-- 2137678198912 -->
<g id="node2" class="node">
<title>2137678198912</title>
<ellipse fill="none" stroke="black" cx="137" cy="-162" rx="27" ry="18"/>
<text text-anchor="middle" x="137" y="-158.3" font-family="Times New Roman,serif" font-size="14.00">For</text>
</g>
<!-- 2137678199056&#45;&gt;2137678198912 -->
<g id="edge1" class="edge">
<title>2137678199056&#45;&gt;2137678198912</title>
<path fill="none" stroke="black" d="M137,-215.7C137,-207.98 137,-198.71 137,-190.11"/>
<polygon fill="black" stroke="black" points="140.5,-190.1 137,-180.1 133.5,-190.1 140.5,-190.1"/>
</g>
<!-- 2137678198432 -->
<g id="node3" class="node">
<title>2137678198432</title>
<ellipse fill="orange" stroke="orange" cx="27" cy="-90" rx="27" ry="18"/>
<text text-anchor="middle" x="27" y="-86.3" font-family="Times New Roman,serif" font-size="14.00">left</text>
</g>
<!-- 2137678198912&#45;&gt;2137678198432 -->
<g id="edge2" class="edge">
<title>2137678198912&#45;&gt;2137678198432</title>
<path fill="none" stroke="black" d="M117.84,-148.81C100.33,-137.67 74.24,-121.06 54.51,-108.5"/>
<polygon fill="black" stroke="black" points="56.26,-105.47 45.94,-103.05 52.5,-111.37 56.26,-105.47"/>
</g>
<!-- 2137678198624 -->
<g id="node5" class="node">
<title>2137678198624</title>
<ellipse fill="none" stroke="black" cx="99" cy="-90" rx="27" ry="18"/>
<text text-anchor="middle" x="99" y="-86.3" font-family="Times New Roman,serif" font-size="14.00">fd</text>
</g>
<!-- 2137678198912&#45;&gt;2137678198624 -->
<g id="edge4" class="edge">
<title>2137678198912&#45;&gt;2137678198624</title>
<path fill="none" stroke="black" d="M128.19,-144.76C123.58,-136.28 117.84,-125.71 112.68,-116.2"/>
<polygon fill="black" stroke="black" points="115.61,-114.27 107.77,-107.15 109.46,-117.61 115.61,-114.27"/>
</g>
<!-- 2137678198816 -->
<g id="node7" class="node">
<title>2137678198816</title>
<ellipse fill="none" stroke="black" cx="175" cy="-90" rx="30.59" ry="18"/>
<text text-anchor="middle" x="175" y="-86.3" font-family="Times New Roman,serif" font-size="14.00">range</text>
</g>
<!-- 2137678198912&#45;&gt;2137678198816 -->
<g id="edge6" class="edge">
<title>2137678198912&#45;&gt;2137678198816</title>
<path fill="none" stroke="black" d="M145.81,-144.76C150.35,-136.4 155.99,-126.02 161.1,-116.61"/>
<polygon fill="black" stroke="black" points="164.28,-118.09 165.97,-107.63 158.12,-114.75 164.28,-118.09"/>
</g>
<!-- 2137678198864 -->
<g id="node9" class="node">
<title>2137678198864</title>
<ellipse fill="none" stroke="black" cx="251" cy="-90" rx="27" ry="18"/>
<text text-anchor="middle" x="251" y="-86.3" font-family="Times New Roman,serif" font-size="14.00">i</text>
</g>
<!-- 2137678198912&#45;&gt;2137678198864 -->
<g id="edge8" class="edge">
<title>2137678198912&#45;&gt;2137678198864</title>
<path fill="none" stroke="black" d="M156.34,-149.13C174.6,-137.91 202.19,-120.97 222.89,-108.26"/>
<polygon fill="black" stroke="black" points="224.88,-111.15 231.57,-102.93 221.21,-105.18 224.88,-111.15"/>
</g>
<!-- 2137678198336 -->
<g id="node4" class="node">
<title>2137678198336</title>
<ellipse fill="orange" stroke="orange" cx="27" cy="-18" rx="27" ry="18"/>
<text text-anchor="middle" x="27" y="-14.3" font-family="Times New Roman,serif" font-size="14.00">90</text>
</g>
<!-- 2137678198432&#45;&gt;2137678198336 -->
<g id="edge3" class="edge">
<title>2137678198432&#45;&gt;2137678198336</title>
<path fill="none" stroke="black" d="M27,-71.7C27,-63.98 27,-54.71 27,-46.11"/>
<polygon fill="black" stroke="black" points="30.5,-46.1 27,-36.1 23.5,-46.1 30.5,-46.1"/>
</g>
<!-- 2137678198528 -->
<g id="node6" class="node">
<title>2137678198528</title>
<ellipse fill="none" stroke="black" cx="99" cy="-18" rx="27" ry="18"/>
<text text-anchor="middle" x="99" y="-14.3" font-family="Times New Roman,serif" font-size="14.00">100</text>
</g>
<!-- 2137678198624&#45;&gt;2137678198528 -->
<g id="edge5" class="edge">
<title>2137678198624&#45;&gt;2137678198528</title>
<path fill="none" stroke="black" d="M99,-71.7C99,-63.98 99,-54.71 99,-46.11"/>
<polygon fill="black" stroke="black" points="102.5,-46.1 99,-36.1 95.5,-46.1 102.5,-46.1"/>
</g>
<!-- 2137678198720 -->
<g id="node8" class="node">
<title>2137678198720</title>
<ellipse fill="none" stroke="black" cx="175" cy="-18" rx="27" ry="18"/>
<text text-anchor="middle" x="175" y="-14.3" font-family="Times New Roman,serif" font-size="14.00">4</text>
</g>
<!-- 2137678198816&#45;&gt;2137678198720 -->
<g id="edge7" class="edge">
<title>2137678198816&#45;&gt;2137678198720</title>
<path fill="none" stroke="black" d="M175,-71.7C175,-63.98 175,-54.71 175,-46.11"/>
<polygon fill="black" stroke="black" points="178.5,-46.1 175,-36.1 171.5,-46.1 178.5,-46.1"/>
</g>
</g>
</svg>
