<?xml version="1.0" encoding="UTF-8" standalone="no"?>
<!DOCTYPE svg PUBLIC "-//W3C//DTD SVG 1.1//EN"
 "http://www.w3.org/Graphics/SVG/1.1/DTD/svg11.dtd">
<!-- Generated by graphviz version 2.50.0 (0)
 -->
<!-- Pages: 1 -->
<svg width="2278pt" height="511pt"
 viewBox="0.00 0.00 2278.25 511.48" xmlns="http://www.w3.org/2000/svg" xmlns:xlink="http://www.w3.org/1999/xlink">
<g id="graph0" class="graph" transform="scale(1 1) rotate(0) translate(4 507.48)">
<polygon fill="white" stroke="transparent" points="-4,4 -4,-507.48 2274.25,-507.48 2274.25,4 -4,4"/>
<!-- 2113180188624 -->
<g id="node1" class="node">
<title>2113180188624</title>
<ellipse fill="none" stroke="black" cx="1491" cy="-485.48" rx="38.19" ry="18"/>
<text text-anchor="middle" x="1491" y="-481.78" font-family="Times New Roman,serif" font-size="14.00">Module</text>
</g>
<!-- 2113180188384 -->
<g id="node2" class="node">
<title>2113180188384</title>
<ellipse fill="none" stroke="black" cx="1491" cy="-413.48" rx="27" ry="18"/>
<text text-anchor="middle" x="1491" y="-409.78" font-family="Times New Roman,serif" font-size="14.00">For</text>
</g>
<!-- 2113180188624&#45;&gt;2113180188384 -->
<g id="edge1" class="edge">
<title>2113180188624&#45;&gt;2113180188384</title>
<path fill="none" stroke="black" d="M1491,-467.18C1491,-459.46 1491,-450.19 1491,-441.59"/>
<polygon fill="black" stroke="black" points="1494.5,-441.58 1491,-431.58 1487.5,-441.58 1494.5,-441.58"/>
</g>
<!-- 2113180542928 -->
<g id="node3" class="node">
<title>2113180542928</title>
<ellipse fill="none" stroke="black" cx="210" cy="-341.48" rx="27" ry="18"/>
<text text-anchor="middle" x="210" y="-337.78" font-family="Times New Roman,serif" font-size="14.00">For</text>
</g>
<!-- 2113180188384&#45;&gt;2113180542928 -->
<g id="edge2" class="edge">
<title>2113180188384&#45;&gt;2113180542928</title>
<path fill="none" stroke="black" d="M1464.11,-411.05C1349.33,-404.94 889.11,-380.38 511,-359.48 416,-354.23 304.14,-347.86 247.27,-344.61"/>
<polygon fill="black" stroke="black" points="247.16,-341.1 236.98,-344.03 246.76,-348.09 247.16,-341.1"/>
</g>
<!-- 2113180543264 -->
<g id="node11" class="node">
<title>2113180543264</title>
<ellipse fill="orange" stroke="orange" cx="557" cy="-341.48" rx="37.09" ry="18"/>
<text text-anchor="middle" x="557" y="-337.78" font-family="Times New Roman,serif" font-size="14.00">pensize</text>
</g>
<!-- 2113180188384&#45;&gt;2113180543264 -->
<g id="edge10" class="edge">
<title>2113180188384&#45;&gt;2113180543264</title>
<path fill="none" stroke="black" d="M1464.09,-410.87C1365.99,-404.93 1018.3,-383.38 732,-359.48 688.12,-355.82 638.12,-350.88 602.84,-347.28"/>
<polygon fill="black" stroke="black" points="603.14,-343.79 592.84,-346.25 602.43,-350.75 603.14,-343.79"/>
</g>
<!-- 2113180543648 -->
<g id="node17" class="node">
<title>2113180543648</title>
<ellipse fill="none" stroke="black" cx="776" cy="-341.48" rx="35.19" ry="18"/>
<text text-anchor="middle" x="776" y="-337.78" font-family="Times New Roman,serif" font-size="14.00">Assign</text>
</g>
<!-- 2113180188384&#45;&gt;2113180543648 -->
<g id="edge16" class="edge">
<title>2113180188384&#45;&gt;2113180543648</title>
<path fill="none" stroke="black" d="M1464.28,-409.86C1356.78,-399.34 955.28,-360.03 820.47,-346.83"/>
<polygon fill="black" stroke="black" points="820.4,-343.31 810.11,-345.82 819.72,-350.28 820.4,-343.31"/>
</g>
<!-- 2113180185168 -->
<g id="node24" class="node">
<title>2113180185168</title>
<ellipse fill="none" stroke="black" cx="1064" cy="-341.48" rx="41.69" ry="18"/>
<text text-anchor="middle" x="1064" y="-337.78" font-family="Times New Roman,serif" font-size="14.00">pencolor</text>
</g>
<!-- 2113180188384&#45;&gt;2113180185168 -->
<g id="edge23" class="edge">
<title>2113180188384&#45;&gt;2113180185168</title>
<path fill="none" stroke="black" d="M1464.93,-408.21C1395.02,-396.75 1202.53,-365.19 1112.11,-350.37"/>
<polygon fill="black" stroke="black" points="1112.56,-346.89 1102.12,-348.73 1111.43,-353.8 1112.56,-346.89"/>
</g>
<!-- 2113180185792 -->
<g id="node29" class="node">
<title>2113180185792</title>
<ellipse fill="none" stroke="black" cx="1274" cy="-341.48" rx="35.19" ry="18"/>
<text text-anchor="middle" x="1274" y="-337.78" font-family="Times New Roman,serif" font-size="14.00">Assign</text>
</g>
<!-- 2113180188384&#45;&gt;2113180185792 -->
<g id="edge28" class="edge">
<title>2113180188384&#45;&gt;2113180185792</title>
<path fill="none" stroke="black" d="M1466.95,-404.72C1429.61,-392.68 1357.34,-369.36 1312.62,-354.94"/>
<polygon fill="black" stroke="black" points="1313.57,-351.57 1302.98,-351.83 1311.42,-358.23 1313.57,-351.57"/>
</g>
<!-- 2113180186416 -->
<g id="node38" class="node">
<title>2113180186416</title>
<ellipse fill="none" stroke="black" cx="1447" cy="-341.48" rx="35.19" ry="18"/>
<text text-anchor="middle" x="1447" y="-337.78" font-family="Times New Roman,serif" font-size="14.00">Assign</text>
</g>
<!-- 2113180188384&#45;&gt;2113180186416 -->
<g id="edge37" class="edge">
<title>2113180188384&#45;&gt;2113180186416</title>
<path fill="none" stroke="black" d="M1481.02,-396.6C1475.58,-387.95 1468.73,-377.06 1462.61,-367.31"/>
<polygon fill="black" stroke="black" points="1465.54,-365.39 1457.25,-358.79 1459.61,-369.12 1465.54,-365.39"/>
</g>
<!-- 2113180186848 -->
<g id="node47" class="node">
<title>2113180186848</title>
<ellipse fill="none" stroke="black" cx="1535" cy="-341.48" rx="35.19" ry="18"/>
<text text-anchor="middle" x="1535" y="-337.78" font-family="Times New Roman,serif" font-size="14.00">Assign</text>
</g>
<!-- 2113180188384&#45;&gt;2113180186848 -->
<g id="edge46" class="edge">
<title>2113180188384&#45;&gt;2113180186848</title>
<path fill="none" stroke="black" d="M1500.98,-396.6C1506.42,-387.95 1513.27,-377.06 1519.39,-367.31"/>
<polygon fill="black" stroke="black" points="1522.39,-369.12 1524.75,-358.79 1516.46,-365.39 1522.39,-369.12"/>
</g>
<!-- 2113180186944 -->
<g id="node56" class="node">
<title>2113180186944</title>
<ellipse fill="none" stroke="black" cx="1631" cy="-341.48" rx="42.79" ry="18"/>
<text text-anchor="middle" x="1631" y="-337.78" font-family="Times New Roman,serif" font-size="14.00">pendown</text>
</g>
<!-- 2113180188384&#45;&gt;2113180186944 -->
<g id="edge55" class="edge">
<title>2113180188384&#45;&gt;2113180186944</title>
<path fill="none" stroke="black" d="M1511.96,-402C1533.84,-391.06 1568.55,-373.7 1594.86,-360.55"/>
<polygon fill="black" stroke="black" points="1596.76,-363.52 1604.13,-355.91 1593.63,-357.25 1596.76,-363.52"/>
</g>
<!-- 2113180187952 -->
<g id="node57" class="node">
<title>2113180187952</title>
<ellipse fill="none" stroke="black" cx="1719" cy="-341.48" rx="27" ry="18"/>
<text text-anchor="middle" x="1719" y="-337.78" font-family="Times New Roman,serif" font-size="14.00">goto</text>
</g>
<!-- 2113180188384&#45;&gt;2113180187952 -->
<g id="edge56" class="edge">
<title>2113180188384&#45;&gt;2113180187952</title>
<path fill="none" stroke="black" d="M1516.29,-406.96C1553.43,-398.54 1624.64,-381.13 1683,-359.48 1684.85,-358.8 1686.73,-358.05 1688.61,-357.27"/>
<polygon fill="black" stroke="black" points="1690.2,-360.4 1697.94,-353.17 1687.38,-353.99 1690.2,-360.4"/>
</g>
<!-- 2113180188096 -->
<g id="node70" class="node">
<title>2113180188096</title>
<ellipse fill="none" stroke="black" cx="1796" cy="-341.48" rx="32.49" ry="18"/>
<text text-anchor="middle" x="1796" y="-337.78" font-family="Times New Roman,serif" font-size="14.00">penup</text>
</g>
<!-- 2113180188384&#45;&gt;2113180188096 -->
<g id="edge69" class="edge">
<title>2113180188384&#45;&gt;2113180188096</title>
<path fill="none" stroke="black" d="M1517.27,-408.94C1565.22,-402.1 1669.81,-385.42 1755,-359.48 1757.3,-358.78 1759.65,-358 1762,-357.16"/>
<polygon fill="black" stroke="black" points="1763.47,-360.35 1771.57,-353.52 1760.98,-353.81 1763.47,-360.35"/>
</g>
<!-- 2113180188288 -->
<g id="node71" class="node">
<title>2113180188288</title>
<ellipse fill="none" stroke="black" cx="1877" cy="-341.48" rx="30.59" ry="18"/>
<text text-anchor="middle" x="1877" y="-337.78" font-family="Times New Roman,serif" font-size="14.00">range</text>
</g>
<!-- 2113180188384&#45;&gt;2113180188288 -->
<g id="edge70" class="edge">
<title>2113180188384&#45;&gt;2113180188288</title>
<path fill="none" stroke="black" d="M1517.96,-410.65C1576.85,-406.16 1720.97,-392.46 1837,-359.48 1839.33,-358.82 1841.7,-358.06 1844.07,-357.23"/>
<polygon fill="black" stroke="black" points="1845.58,-360.4 1853.66,-353.55 1843.07,-353.86 1845.58,-360.4"/>
</g>
<!-- 2113180188336 -->
<g id="node73" class="node">
<title>2113180188336</title>
<ellipse fill="none" stroke="black" cx="1953" cy="-341.48" rx="27" ry="18"/>
<text text-anchor="middle" x="1953" y="-337.78" font-family="Times New Roman,serif" font-size="14.00">n</text>
</g>
<!-- 2113180188384&#45;&gt;2113180188336 -->
<g id="edge72" class="edge">
<title>2113180188384&#45;&gt;2113180188336</title>
<path fill="none" stroke="black" d="M1518.01,-412.07C1586.27,-410.39 1770.63,-401.96 1917,-359.48 1918.94,-358.92 1920.91,-358.26 1922.87,-357.54"/>
<polygon fill="black" stroke="black" points="1924.61,-360.6 1932.5,-353.53 1921.92,-354.14 1924.61,-360.6"/>
</g>
<!-- 2113180542448 -->
<g id="node4" class="node">
<title>2113180542448</title>
<ellipse fill="none" stroke="black" cx="33" cy="-260.61" rx="27" ry="18"/>
<text text-anchor="middle" x="33" y="-256.91" font-family="Times New Roman,serif" font-size="14.00">left</text>
</g>
<!-- 2113180542928&#45;&gt;2113180542448 -->
<g id="edge3" class="edge">
<title>2113180542928&#45;&gt;2113180542448</title>
<path fill="none" stroke="black" d="M187.02,-331.39C161.6,-321.2 119.53,-303.94 84,-287.48 77.06,-284.27 69.69,-280.65 62.76,-277.15"/>
<polygon fill="black" stroke="black" points="64.18,-273.95 53.68,-272.52 61,-280.18 64.18,-273.95"/>
</g>
<!-- 2113180542640 -->
<g id="node6" class="node">
<title>2113180542640</title>
<ellipse fill="none" stroke="black" cx="124" cy="-260.61" rx="30.59" ry="18"/>
<text text-anchor="middle" x="124" y="-256.91" font-family="Times New Roman,serif" font-size="14.00">circle</text>
</g>
<!-- 2113180542928&#45;&gt;2113180542640 -->
<g id="edge5" class="edge">
<title>2113180542928&#45;&gt;2113180542640</title>
<path fill="none" stroke="black" d="M194.62,-326.38C181.46,-314.31 162.3,-296.74 147.26,-282.94"/>
<polygon fill="black" stroke="black" points="149.56,-280.3 139.82,-276.12 144.83,-285.46 149.56,-280.3"/>
</g>
<!-- 2113180542832 -->
<g id="node8" class="node">
<title>2113180542832</title>
<ellipse fill="none" stroke="black" cx="210" cy="-260.61" rx="30.59" ry="18"/>
<text text-anchor="middle" x="210" y="-256.91" font-family="Times New Roman,serif" font-size="14.00">range</text>
</g>
<!-- 2113180542928&#45;&gt;2113180542832 -->
<g id="edge7" class="edge">
<title>2113180542928&#45;&gt;2113180542832</title>
<path fill="none" stroke="black" d="M210,-323.37C210,-313.34 210,-300.45 210,-289.03"/>
<polygon fill="black" stroke="black" points="213.5,-288.69 210,-278.69 206.5,-288.69 213.5,-288.69"/>
</g>
<!-- 2113180542880 -->
<g id="node10" class="node">
<title>2113180542880</title>
<ellipse fill="none" stroke="black" cx="286" cy="-260.61" rx="27" ry="18"/>
<text text-anchor="middle" x="286" y="-256.91" font-family="Times New Roman,serif" font-size="14.00">i</text>
</g>
<!-- 2113180542928&#45;&gt;2113180542880 -->
<g id="edge9" class="edge">
<title>2113180542928&#45;&gt;2113180542880</title>
<path fill="none" stroke="black" d="M223.94,-326.01C235.33,-314.19 251.62,-297.29 264.66,-283.76"/>
<polygon fill="black" stroke="black" points="267.47,-285.88 271.89,-276.25 262.43,-281.02 267.47,-285.88"/>
</g>
<!-- 2113180542352 -->
<g id="node5" class="node">
<title>2113180542352</title>
<ellipse fill="none" stroke="black" cx="27" cy="-170.87" rx="27" ry="18"/>
<text text-anchor="middle" x="27" y="-167.17" font-family="Times New Roman,serif" font-size="14.00">60</text>
</g>
<!-- 2113180542448&#45;&gt;2113180542352 -->
<g id="edge4" class="edge">
<title>2113180542448&#45;&gt;2113180542352</title>
<path fill="none" stroke="black" d="M31.81,-242.28C30.97,-229.94 29.82,-213.12 28.86,-199.01"/>
<polygon fill="black" stroke="black" points="32.34,-198.61 28.16,-188.87 25.35,-199.09 32.34,-198.61"/>
</g>
<!-- 2113180542544 -->
<g id="node7" class="node">
<title>2113180542544</title>
<ellipse fill="none" stroke="black" cx="120" cy="-170.87" rx="48.19" ry="18"/>
<text text-anchor="middle" x="120" y="-167.17" font-family="Times New Roman,serif" font-size="14.00">circle_size</text>
</g>
<!-- 2113180542640&#45;&gt;2113180542544 -->
<g id="edge6" class="edge">
<title>2113180542640&#45;&gt;2113180542544</title>
<path fill="none" stroke="black" d="M123.21,-242.28C122.65,-229.94 121.88,-213.12 121.24,-199.01"/>
<polygon fill="black" stroke="black" points="124.73,-198.7 120.78,-188.87 117.73,-199.02 124.73,-198.7"/>
</g>
<!-- 2113180542736 -->
<g id="node9" class="node">
<title>2113180542736</title>
<ellipse fill="none" stroke="black" cx="213" cy="-170.87" rx="27" ry="18"/>
<text text-anchor="middle" x="213" y="-167.17" font-family="Times New Roman,serif" font-size="14.00">6</text>
</g>
<!-- 2113180542832&#45;&gt;2113180542736 -->
<g id="edge8" class="edge">
<title>2113180542832&#45;&gt;2113180542736</title>
<path fill="none" stroke="black" d="M210.59,-242.28C211.01,-229.94 211.59,-213.12 212.07,-199.01"/>
<polygon fill="black" stroke="black" points="215.57,-198.98 212.42,-188.87 208.58,-198.74 215.57,-198.98"/>
</g>
<!-- 2113180543168 -->
<g id="node12" class="node">
<title>2113180543168</title>
<ellipse fill="orange" stroke="orange" cx="406" cy="-260.61" rx="36" ry="18"/>
<text text-anchor="middle" x="406" y="-256.91" font-family="Times New Roman,serif" font-size="14.00">randint</text>
</g>
<!-- 2113180543264&#45;&gt;2113180543168 -->
<g id="edge11" class="edge">
<title>2113180543264&#45;&gt;2113180543168</title>
<path fill="none" stroke="black" d="M532.74,-327.81C507.42,-314.59 467.55,-293.76 439.3,-279"/>
<polygon fill="black" stroke="black" points="440.68,-275.78 430.2,-274.25 437.44,-281.98 440.68,-275.78"/>
</g>
<!-- 2113180542976 -->
<g id="node13" class="node">
<title>2113180542976</title>
<ellipse fill="orange" stroke="orange" cx="285" cy="-170.87" rx="27" ry="18"/>
<text text-anchor="middle" x="285" y="-167.17" font-family="Times New Roman,serif" font-size="14.00">5</text>
</g>
<!-- 2113180543168&#45;&gt;2113180542976 -->
<g id="edge12" class="edge">
<title>2113180543168&#45;&gt;2113180542976</title>
<path fill="none" stroke="black" d="M386.29,-245.32C365.74,-230.42 333.45,-207 310.87,-190.63"/>
<polygon fill="black" stroke="black" points="312.88,-187.76 302.73,-184.73 308.77,-193.43 312.88,-187.76"/>
</g>
<!-- 2113180543024 -->
<g id="node14" class="node">
<title>2113180543024</title>
<ellipse fill="orange" stroke="orange" cx="357" cy="-170.87" rx="27" ry="18"/>
<text text-anchor="middle" x="357" y="-167.17" font-family="Times New Roman,serif" font-size="14.00">1</text>
</g>
<!-- 2113180543168&#45;&gt;2113180543024 -->
<g id="edge13" class="edge">
<title>2113180543168&#45;&gt;2113180543024</title>
<path fill="none" stroke="black" d="M396.78,-243.11C389.55,-230.16 379.36,-211.91 371.11,-197.13"/>
<polygon fill="black" stroke="black" points="373.94,-195.03 366.01,-188 367.83,-198.44 373.94,-195.03"/>
</g>
<!-- 2113180543120 -->
<g id="node15" class="node">
<title>2113180543120</title>
<ellipse fill="none" stroke="black" cx="444" cy="-170.87" rx="42.49" ry="18"/>
<text text-anchor="middle" x="444" y="-167.17" font-family="Times New Roman,serif" font-size="14.00">Attribute</text>
</g>
<!-- 2113180543168&#45;&gt;2113180543120 -->
<g id="edge14" class="edge">
<title>2113180543168&#45;&gt;2113180543120</title>
<path fill="none" stroke="black" d="M413.33,-242.69C418.79,-230.07 426.37,-212.58 432.62,-198.15"/>
<polygon fill="black" stroke="black" points="435.93,-199.3 436.7,-188.74 429.51,-196.52 435.93,-199.3"/>
</g>
<!-- 2113180543072 -->
<g id="node16" class="node">
<title>2113180543072</title>
<ellipse fill="orange" stroke="orange" cx="444" cy="-90" rx="38.19" ry="18"/>
<text text-anchor="middle" x="444" y="-86.3" font-family="Times New Roman,serif" font-size="14.00">random</text>
</g>
<!-- 2113180543120&#45;&gt;2113180543072 -->
<g id="edge15" class="edge">
<title>2113180543120&#45;&gt;2113180543072</title>
<path fill="none" stroke="black" d="M444,-152.76C444,-142.73 444,-129.84 444,-118.42"/>
<polygon fill="black" stroke="black" points="447.5,-118.08 444,-108.08 440.5,-118.08 447.5,-118.08"/>
</g>
<!-- 2113180543552 -->
<g id="node18" class="node">
<title>2113180543552</title>
<ellipse fill="none" stroke="black" cx="647" cy="-260.61" rx="36" ry="18"/>
<text text-anchor="middle" x="647" y="-256.91" font-family="Times New Roman,serif" font-size="14.00">randint</text>
</g>
<!-- 2113180543648&#45;&gt;2113180543552 -->
<g id="edge17" class="edge">
<title>2113180543648&#45;&gt;2113180543552</title>
<path fill="none" stroke="black" d="M754.41,-327.28C733.42,-314.45 701.34,-294.83 677.7,-280.38"/>
<polygon fill="black" stroke="black" points="679.45,-277.35 669.09,-275.12 675.8,-283.32 679.45,-277.35"/>
</g>
<!-- 2113180543600 -->
<g id="node23" class="node">
<title>2113180543600</title>
<ellipse fill="none" stroke="black" cx="776" cy="-260.61" rx="48.19" ry="18"/>
<text text-anchor="middle" x="776" y="-256.91" font-family="Times New Roman,serif" font-size="14.00">circle_size</text>
</g>
<!-- 2113180543648&#45;&gt;2113180543600 -->
<g id="edge22" class="edge">
<title>2113180543648&#45;&gt;2113180543600</title>
<path fill="none" stroke="black" d="M776,-323.37C776,-313.34 776,-300.45 776,-289.03"/>
<polygon fill="black" stroke="black" points="779.5,-288.69 776,-278.69 772.5,-288.69 779.5,-288.69"/>
</g>
<!-- 2113180543360 -->
<g id="node19" class="node">
<title>2113180543360</title>
<ellipse fill="none" stroke="black" cx="531" cy="-170.87" rx="27" ry="18"/>
<text text-anchor="middle" x="531" y="-167.17" font-family="Times New Roman,serif" font-size="14.00">40</text>
</g>
<!-- 2113180543552&#45;&gt;2113180543360 -->
<g id="edge18" class="edge">
<title>2113180543552&#45;&gt;2113180543360</title>
<path fill="none" stroke="black" d="M628.1,-245.32C608.61,-230.57 578.08,-207.48 556.46,-191.13"/>
<polygon fill="black" stroke="black" points="558.46,-188.25 548.37,-185.01 554.23,-193.83 558.46,-188.25"/>
</g>
<!-- 2113180543408 -->
<g id="node20" class="node">
<title>2113180543408</title>
<ellipse fill="none" stroke="black" cx="603" cy="-170.87" rx="27" ry="18"/>
<text text-anchor="middle" x="603" y="-167.17" font-family="Times New Roman,serif" font-size="14.00">10</text>
</g>
<!-- 2113180543552&#45;&gt;2113180543408 -->
<g id="edge19" class="edge">
<title>2113180543552&#45;&gt;2113180543408</title>
<path fill="none" stroke="black" d="M638.52,-242.69C632.04,-229.78 623.02,-211.79 615.69,-197.17"/>
<polygon fill="black" stroke="black" points="618.77,-195.51 611.16,-188.14 612.51,-198.65 618.77,-195.51"/>
</g>
<!-- 2113180543504 -->
<g id="node21" class="node">
<title>2113180543504</title>
<ellipse fill="none" stroke="black" cx="690" cy="-170.87" rx="42.49" ry="18"/>
<text text-anchor="middle" x="690" y="-167.17" font-family="Times New Roman,serif" font-size="14.00">Attribute</text>
</g>
<!-- 2113180543552&#45;&gt;2113180543504 -->
<g id="edge20" class="edge">
<title>2113180543552&#45;&gt;2113180543504</title>
<path fill="none" stroke="black" d="M655.29,-242.69C661.54,-229.95 670.21,-212.25 677.33,-197.73"/>
<polygon fill="black" stroke="black" points="680.48,-199.26 681.73,-188.74 674.19,-196.17 680.48,-199.26"/>
</g>
<!-- 2113180543456 -->
<g id="node22" class="node">
<title>2113180543456</title>
<ellipse fill="none" stroke="black" cx="690" cy="-90" rx="38.19" ry="18"/>
<text text-anchor="middle" x="690" y="-86.3" font-family="Times New Roman,serif" font-size="14.00">random</text>
</g>
<!-- 2113180543504&#45;&gt;2113180543456 -->
<g id="edge21" class="edge">
<title>2113180543504&#45;&gt;2113180543456</title>
<path fill="none" stroke="black" d="M690,-152.76C690,-142.73 690,-129.84 690,-118.42"/>
<polygon fill="black" stroke="black" points="693.5,-118.08 690,-108.08 686.5,-118.08 693.5,-118.08"/>
</g>
<!-- 2113180543840 -->
<g id="node25" class="node">
<title>2113180543840</title>
<ellipse fill="none" stroke="black" cx="1002" cy="-260.61" rx="31.4" ry="18"/>
<text text-anchor="middle" x="1002" y="-256.91" font-family="Times New Roman,serif" font-size="14.00">Tuple</text>
</g>
<!-- 2113180185168&#45;&gt;2113180543840 -->
<g id="edge24" class="edge">
<title>2113180185168&#45;&gt;2113180543840</title>
<path fill="none" stroke="black" d="M1051.15,-324.14C1042.39,-312.99 1030.65,-298.05 1020.83,-285.57"/>
<polygon fill="black" stroke="black" points="1023.34,-283.09 1014.41,-277.39 1017.84,-287.42 1023.34,-283.09"/>
</g>
<!-- 2113180543696 -->
<g id="node26" class="node">
<title>2113180543696</title>
<ellipse fill="none" stroke="black" cx="807" cy="-170.87" rx="57.39" ry="18"/>
<text text-anchor="middle" x="807" y="-167.17" font-family="Times New Roman,serif" font-size="14.00">blue_amount</text>
</g>
<!-- 2113180543840&#45;&gt;2113180543696 -->
<g id="edge25" class="edge">
<title>2113180543840&#45;&gt;2113180543696</title>
<path fill="none" stroke="black" d="M978.09,-248.85C945.74,-234.3 887.56,-208.12 848.13,-190.38"/>
<polygon fill="black" stroke="black" points="849.09,-186.97 838.53,-186.06 846.22,-193.35 849.09,-186.97"/>
</g>
<!-- 2113180543744 -->
<g id="node27" class="node">
<title>2113180543744</title>
<ellipse fill="none" stroke="black" cx="944" cy="-170.87" rx="61.99" ry="18"/>
<text text-anchor="middle" x="944" y="-167.17" font-family="Times New Roman,serif" font-size="14.00">green_amount</text>
</g>
<!-- 2113180543840&#45;&gt;2113180543744 -->
<g id="edge26" class="edge">
<title>2113180543840&#45;&gt;2113180543744</title>
<path fill="none" stroke="black" d="M991.36,-243.52C982.86,-230.65 970.78,-212.38 960.94,-197.5"/>
<polygon fill="black" stroke="black" points="963.6,-195.17 955.16,-188.76 957.76,-199.03 963.6,-195.17"/>
</g>
<!-- 2113180543792 -->
<g id="node28" class="node">
<title>2113180543792</title>
<ellipse fill="none" stroke="black" cx="1077" cy="-170.87" rx="53.09" ry="18"/>
<text text-anchor="middle" x="1077" y="-167.17" font-family="Times New Roman,serif" font-size="14.00">red_amount</text>
</g>
<!-- 2113180543840&#45;&gt;2113180543792 -->
<g id="edge27" class="edge">
<title>2113180543840&#45;&gt;2113180543792</title>
<path fill="none" stroke="black" d="M1015.41,-243.92C1026.71,-230.7 1043.08,-211.55 1056.11,-196.31"/>
<polygon fill="black" stroke="black" points="1059.11,-198.19 1062.94,-188.31 1053.79,-193.64 1059.11,-198.19"/>
</g>
<!-- 2113180185696 -->
<g id="node30" class="node">
<title>2113180185696</title>
<ellipse fill="none" stroke="black" cx="1157" cy="-260.61" rx="37.45" ry="26.74"/>
<text text-anchor="middle" x="1157" y="-264.41" font-family="Times New Roman,serif" font-size="14.00">BinOp</text>
<text text-anchor="middle" x="1157" y="-249.41" font-family="Times New Roman,serif" font-size="14.00">Div</text>
</g>
<!-- 2113180185792&#45;&gt;2113180185696 -->
<g id="edge29" class="edge">
<title>2113180185792&#45;&gt;2113180185696</title>
<path fill="none" stroke="black" d="M1253.62,-326.74C1236.66,-315.31 1212.14,-298.78 1192.04,-285.23"/>
<polygon fill="black" stroke="black" points="1193.98,-282.32 1183.73,-279.63 1190.07,-288.12 1193.98,-282.32"/>
</g>
<!-- 2113180185744 -->
<g id="node37" class="node">
<title>2113180185744</title>
<ellipse fill="none" stroke="black" cx="1274" cy="-260.61" rx="61.99" ry="18"/>
<text text-anchor="middle" x="1274" y="-256.91" font-family="Times New Roman,serif" font-size="14.00">green_amount</text>
</g>
<!-- 2113180185792&#45;&gt;2113180185744 -->
<g id="edge36" class="edge">
<title>2113180185792&#45;&gt;2113180185744</title>
<path fill="none" stroke="black" d="M1274,-323.37C1274,-313.34 1274,-300.45 1274,-289.03"/>
<polygon fill="black" stroke="black" points="1277.5,-288.69 1274,-278.69 1270.5,-288.69 1277.5,-288.69"/>
</g>
<!-- 2113180185408 -->
<g id="node31" class="node">
<title>2113180185408</title>
<ellipse fill="none" stroke="black" cx="1179" cy="-170.87" rx="30.59" ry="18"/>
<text text-anchor="middle" x="1179" y="-167.17" font-family="Times New Roman,serif" font-size="14.00">100.0</text>
</g>
<!-- 2113180185696&#45;&gt;2113180185408 -->
<g id="edge30" class="edge">
<title>2113180185696&#45;&gt;2113180185408</title>
<path fill="none" stroke="black" d="M1163.48,-233.76C1166.23,-222.8 1169.43,-210.03 1172.21,-198.95"/>
<polygon fill="black" stroke="black" points="1175.68,-199.5 1174.72,-188.95 1168.89,-197.8 1175.68,-199.5"/>
</g>
<!-- 2113180185552 -->
<g id="node32" class="node">
<title>2113180185552</title>
<ellipse fill="none" stroke="black" cx="1263" cy="-170.87" rx="36" ry="18"/>
<text text-anchor="middle" x="1263" y="-167.17" font-family="Times New Roman,serif" font-size="14.00">randint</text>
</g>
<!-- 2113180185696&#45;&gt;2113180185552 -->
<g id="edge31" class="edge">
<title>2113180185696&#45;&gt;2113180185552</title>
<path fill="none" stroke="black" d="M1181.05,-239.7C1197.75,-225.88 1219.97,-207.49 1237.06,-193.35"/>
<polygon fill="black" stroke="black" points="1239.52,-195.85 1244.99,-186.78 1235.05,-190.46 1239.52,-195.85"/>
</g>
<!-- 2113180185072 -->
<g id="node33" class="node">
<title>2113180185072</title>
<ellipse fill="none" stroke="black" cx="1108" cy="-90" rx="27" ry="18"/>
<text text-anchor="middle" x="1108" y="-86.3" font-family="Times New Roman,serif" font-size="14.00">30</text>
</g>
<!-- 2113180185552&#45;&gt;2113180185072 -->
<g id="edge32" class="edge">
<title>2113180185552&#45;&gt;2113180185072</title>
<path fill="none" stroke="black" d="M1240.83,-156.33C1233.91,-152.24 1226.2,-147.83 1219,-144 1211.36,-139.94 1168.96,-119.8 1138.83,-105.56"/>
<polygon fill="black" stroke="black" points="1140.08,-102.27 1129.55,-101.17 1137.09,-108.6 1140.08,-102.27"/>
</g>
<!-- 2113180185120 -->
<g id="node34" class="node">
<title>2113180185120</title>
<ellipse fill="none" stroke="black" cx="1180" cy="-90" rx="27" ry="18"/>
<text text-anchor="middle" x="1180" y="-86.3" font-family="Times New Roman,serif" font-size="14.00">0</text>
</g>
<!-- 2113180185552&#45;&gt;2113180185120 -->
<g id="edge33" class="edge">
<title>2113180185552&#45;&gt;2113180185120</title>
<path fill="none" stroke="black" d="M1247,-154.66C1234.28,-142.58 1216.34,-125.53 1202.23,-112.12"/>
<polygon fill="black" stroke="black" points="1204.5,-109.45 1194.84,-105.1 1199.68,-114.53 1204.5,-109.45"/>
</g>
<!-- 2113180185504 -->
<g id="node35" class="node">
<title>2113180185504</title>
<ellipse fill="none" stroke="black" cx="1267" cy="-90" rx="42.49" ry="18"/>
<text text-anchor="middle" x="1267" y="-86.3" font-family="Times New Roman,serif" font-size="14.00">Attribute</text>
</g>
<!-- 2113180185552&#45;&gt;2113180185504 -->
<g id="edge34" class="edge">
<title>2113180185552&#45;&gt;2113180185504</title>
<path fill="none" stroke="black" d="M1263.87,-152.76C1264.38,-142.63 1265.04,-129.57 1265.63,-118.07"/>
<polygon fill="black" stroke="black" points="1269.12,-118.24 1266.13,-108.08 1262.13,-117.89 1269.12,-118.24"/>
</g>
<!-- 2113180185456 -->
<g id="node36" class="node">
<title>2113180185456</title>
<ellipse fill="none" stroke="black" cx="1267" cy="-18" rx="38.19" ry="18"/>
<text text-anchor="middle" x="1267" y="-14.3" font-family="Times New Roman,serif" font-size="14.00">random</text>
</g>
<!-- 2113180185504&#45;&gt;2113180185456 -->
<g id="edge35" class="edge">
<title>2113180185504&#45;&gt;2113180185456</title>
<path fill="none" stroke="black" d="M1267,-71.7C1267,-63.98 1267,-54.71 1267,-46.11"/>
<polygon fill="black" stroke="black" points="1270.5,-46.1 1267,-36.1 1263.5,-46.1 1270.5,-46.1"/>
</g>
<!-- 2113180186320 -->
<g id="node39" class="node">
<title>2113180186320</title>
<ellipse fill="none" stroke="black" cx="1391" cy="-260.61" rx="37.45" ry="26.74"/>
<text text-anchor="middle" x="1391" y="-264.41" font-family="Times New Roman,serif" font-size="14.00">BinOp</text>
<text text-anchor="middle" x="1391" y="-249.41" font-family="Times New Roman,serif" font-size="14.00">Div</text>
</g>
<!-- 2113180186416&#45;&gt;2113180186320 -->
<g id="edge38" class="edge">
<title>2113180186416&#45;&gt;2113180186320</title>
<path fill="none" stroke="black" d="M1435.4,-324.14C1429.03,-315.17 1420.91,-303.73 1413.36,-293.1"/>
<polygon fill="black" stroke="black" points="1416.12,-290.94 1407.47,-284.81 1410.41,-294.99 1416.12,-290.94"/>
</g>
<!-- 2113180186368 -->
<g id="node46" class="node">
<title>2113180186368</title>
<ellipse fill="none" stroke="black" cx="1504" cy="-260.61" rx="57.39" ry="18"/>
<text text-anchor="middle" x="1504" y="-256.91" font-family="Times New Roman,serif" font-size="14.00">blue_amount</text>
</g>
<!-- 2113180186416&#45;&gt;2113180186368 -->
<g id="edge45" class="edge">
<title>2113180186416&#45;&gt;2113180186368</title>
<path fill="none" stroke="black" d="M1458.81,-324.14C1466.58,-313.39 1476.9,-299.11 1485.71,-286.91"/>
<polygon fill="black" stroke="black" points="1488.79,-288.63 1491.81,-278.48 1483.12,-284.53 1488.79,-288.63"/>
</g>
<!-- 2113180185840 -->
<g id="node40" class="node">
<title>2113180185840</title>
<ellipse fill="none" stroke="black" cx="1347" cy="-170.87" rx="30.59" ry="18"/>
<text text-anchor="middle" x="1347" y="-167.17" font-family="Times New Roman,serif" font-size="14.00">100.0</text>
</g>
<!-- 2113180186320&#45;&gt;2113180185840 -->
<g id="edge39" class="edge">
<title>2113180186320&#45;&gt;2113180185840</title>
<path fill="none" stroke="black" d="M1378.74,-235.17C1372.84,-223.41 1365.77,-209.31 1359.81,-197.41"/>
<polygon fill="black" stroke="black" points="1362.91,-195.79 1355.3,-188.42 1356.65,-198.92 1362.91,-195.79"/>
</g>
<!-- 2113180186272 -->
<g id="node41" class="node">
<title>2113180186272</title>
<ellipse fill="none" stroke="black" cx="1431" cy="-170.87" rx="36" ry="18"/>
<text text-anchor="middle" x="1431" y="-167.17" font-family="Times New Roman,serif" font-size="14.00">randint</text>
</g>
<!-- 2113180186320&#45;&gt;2113180186272 -->
<g id="edge40" class="edge">
<title>2113180186320&#45;&gt;2113180186272</title>
<path fill="none" stroke="black" d="M1402.36,-234.7C1407.62,-223.14 1413.88,-209.41 1419.21,-197.74"/>
<polygon fill="black" stroke="black" points="1422.45,-199.06 1423.41,-188.51 1416.08,-196.16 1422.45,-199.06"/>
</g>
<!-- 2113180185888 -->
<g id="node42" class="node">
<title>2113180185888</title>
<ellipse fill="none" stroke="black" cx="1354" cy="-90" rx="27" ry="18"/>
<text text-anchor="middle" x="1354" y="-86.3" font-family="Times New Roman,serif" font-size="14.00">100</text>
</g>
<!-- 2113180186272&#45;&gt;2113180185888 -->
<g id="edge41" class="edge">
<title>2113180186272&#45;&gt;2113180185888</title>
<path fill="none" stroke="black" d="M1415.79,-154.29C1404.21,-142.43 1388.13,-125.96 1375.28,-112.8"/>
<polygon fill="black" stroke="black" points="1377.63,-110.2 1368.14,-105.49 1372.62,-115.09 1377.63,-110.2"/>
</g>
<!-- 2113180185936 -->
<g id="node43" class="node">
<title>2113180185936</title>
<ellipse fill="none" stroke="black" cx="1426" cy="-90" rx="27" ry="18"/>
<text text-anchor="middle" x="1426" y="-86.3" font-family="Times New Roman,serif" font-size="14.00">50</text>
</g>
<!-- 2113180186272&#45;&gt;2113180185936 -->
<g id="edge42" class="edge">
<title>2113180186272&#45;&gt;2113180185936</title>
<path fill="none" stroke="black" d="M1429.92,-152.76C1429.27,-142.63 1428.45,-129.57 1427.72,-118.07"/>
<polygon fill="black" stroke="black" points="1431.21,-117.84 1427.08,-108.08 1424.22,-118.28 1431.21,-117.84"/>
</g>
<!-- 2113180186032 -->
<g id="node44" class="node">
<title>2113180186032</title>
<ellipse fill="none" stroke="black" cx="1513" cy="-90" rx="42.49" ry="18"/>
<text text-anchor="middle" x="1513" y="-86.3" font-family="Times New Roman,serif" font-size="14.00">Attribute</text>
</g>
<!-- 2113180186272&#45;&gt;2113180186032 -->
<g id="edge43" class="edge">
<title>2113180186272&#45;&gt;2113180186032</title>
<path fill="none" stroke="black" d="M1446.81,-154.66C1458.9,-143.03 1475.77,-126.81 1489.45,-113.65"/>
<polygon fill="black" stroke="black" points="1491.9,-116.15 1496.68,-106.7 1487.04,-111.11 1491.9,-116.15"/>
</g>
<!-- 2113180185984 -->
<g id="node45" class="node">
<title>2113180185984</title>
<ellipse fill="none" stroke="black" cx="1513" cy="-18" rx="38.19" ry="18"/>
<text text-anchor="middle" x="1513" y="-14.3" font-family="Times New Roman,serif" font-size="14.00">random</text>
</g>
<!-- 2113180186032&#45;&gt;2113180185984 -->
<g id="edge44" class="edge">
<title>2113180186032&#45;&gt;2113180185984</title>
<path fill="none" stroke="black" d="M1513,-71.7C1513,-63.98 1513,-54.71 1513,-46.11"/>
<polygon fill="black" stroke="black" points="1516.5,-46.1 1513,-36.1 1509.5,-46.1 1516.5,-46.1"/>
</g>
<!-- 2113180186752 -->
<g id="node48" class="node">
<title>2113180186752</title>
<ellipse fill="none" stroke="black" cx="1617" cy="-260.61" rx="37.45" ry="26.74"/>
<text text-anchor="middle" x="1617" y="-264.41" font-family="Times New Roman,serif" font-size="14.00">BinOp</text>
<text text-anchor="middle" x="1617" y="-249.41" font-family="Times New Roman,serif" font-size="14.00">Div</text>
</g>
<!-- 2113180186848&#45;&gt;2113180186752 -->
<g id="edge47" class="edge">
<title>2113180186848&#45;&gt;2113180186752</title>
<path fill="none" stroke="black" d="M1550.81,-325.27C1561.22,-315.26 1575.16,-301.86 1587.56,-289.93"/>
<polygon fill="black" stroke="black" points="1590.26,-292.19 1595.04,-282.73 1585.41,-287.14 1590.26,-292.19"/>
</g>
<!-- 2113180186800 -->
<g id="node55" class="node">
<title>2113180186800</title>
<ellipse fill="none" stroke="black" cx="1726" cy="-260.61" rx="53.09" ry="18"/>
<text text-anchor="middle" x="1726" y="-256.91" font-family="Times New Roman,serif" font-size="14.00">red_amount</text>
</g>
<!-- 2113180186848&#45;&gt;2113180186800 -->
<g id="edge54" class="edge">
<title>2113180186848&#45;&gt;2113180186800</title>
<path fill="none" stroke="black" d="M1561.56,-329.51C1593.27,-316.42 1646.69,-294.36 1684.01,-278.95"/>
<polygon fill="black" stroke="black" points="1685.7,-282.04 1693.61,-274.99 1683.03,-275.57 1685.7,-282.04"/>
</g>
<!-- 2113180186464 -->
<g id="node49" class="node">
<title>2113180186464</title>
<ellipse fill="none" stroke="black" cx="1576" cy="-170.87" rx="30.59" ry="18"/>
<text text-anchor="middle" x="1576" y="-167.17" font-family="Times New Roman,serif" font-size="14.00">100.0</text>
</g>
<!-- 2113180186752&#45;&gt;2113180186464 -->
<g id="edge48" class="edge">
<title>2113180186752&#45;&gt;2113180186464</title>
<path fill="none" stroke="black" d="M1605.36,-234.7C1599.96,-223.14 1593.54,-209.41 1588.09,-197.74"/>
<polygon fill="black" stroke="black" points="1591.18,-196.09 1583.78,-188.51 1584.84,-199.05 1591.18,-196.09"/>
</g>
<!-- 2113180186704 -->
<g id="node50" class="node">
<title>2113180186704</title>
<ellipse fill="none" stroke="black" cx="1660" cy="-170.87" rx="36" ry="18"/>
<text text-anchor="middle" x="1660" y="-167.17" font-family="Times New Roman,serif" font-size="14.00">randint</text>
</g>
<!-- 2113180186752&#45;&gt;2113180186704 -->
<g id="edge49" class="edge">
<title>2113180186752&#45;&gt;2113180186704</title>
<path fill="none" stroke="black" d="M1629.21,-234.7C1634.87,-223.14 1641.6,-209.41 1647.32,-197.74"/>
<polygon fill="black" stroke="black" points="1650.59,-199.03 1651.85,-188.51 1644.3,-195.95 1650.59,-199.03"/>
</g>
<!-- 2113180186512 -->
<g id="node51" class="node">
<title>2113180186512</title>
<ellipse fill="none" stroke="black" cx="1600" cy="-90" rx="27" ry="18"/>
<text text-anchor="middle" x="1600" y="-86.3" font-family="Times New Roman,serif" font-size="14.00">30</text>
</g>
<!-- 2113180186704&#45;&gt;2113180186512 -->
<g id="edge50" class="edge">
<title>2113180186704&#45;&gt;2113180186512</title>
<path fill="none" stroke="black" d="M1647.86,-153.91C1639.29,-142.65 1627.66,-127.36 1618.02,-114.68"/>
<polygon fill="black" stroke="black" points="1620.56,-112.24 1611.72,-106.4 1614.98,-116.48 1620.56,-112.24"/>
</g>
<!-- 2113180186560 -->
<g id="node52" class="node">
<title>2113180186560</title>
<ellipse fill="none" stroke="black" cx="1672" cy="-90" rx="27" ry="18"/>
<text text-anchor="middle" x="1672" y="-86.3" font-family="Times New Roman,serif" font-size="14.00">0</text>
</g>
<!-- 2113180186704&#45;&gt;2113180186560 -->
<g id="edge51" class="edge">
<title>2113180186704&#45;&gt;2113180186560</title>
<path fill="none" stroke="black" d="M1662.6,-152.76C1664.14,-142.63 1666.13,-129.57 1667.88,-118.07"/>
<polygon fill="black" stroke="black" points="1671.36,-118.49 1669.4,-108.08 1664.44,-117.44 1671.36,-118.49"/>
</g>
<!-- 2113180186656 -->
<g id="node53" class="node">
<title>2113180186656</title>
<ellipse fill="none" stroke="black" cx="1759" cy="-90" rx="42.49" ry="18"/>
<text text-anchor="middle" x="1759" y="-86.3" font-family="Times New Roman,serif" font-size="14.00">Attribute</text>
</g>
<!-- 2113180186704&#45;&gt;2113180186656 -->
<g id="edge52" class="edge">
<title>2113180186704&#45;&gt;2113180186656</title>
<path fill="none" stroke="black" d="M1678.62,-155.04C1693.64,-143.07 1714.97,-126.08 1731.89,-112.6"/>
<polygon fill="black" stroke="black" points="1734.15,-115.27 1739.79,-106.31 1729.78,-109.8 1734.15,-115.27"/>
</g>
<!-- 2113180186608 -->
<g id="node54" class="node">
<title>2113180186608</title>
<ellipse fill="none" stroke="black" cx="1759" cy="-18" rx="38.19" ry="18"/>
<text text-anchor="middle" x="1759" y="-14.3" font-family="Times New Roman,serif" font-size="14.00">random</text>
</g>
<!-- 2113180186656&#45;&gt;2113180186608 -->
<g id="edge53" class="edge">
<title>2113180186656&#45;&gt;2113180186608</title>
<path fill="none" stroke="black" d="M1759,-71.7C1759,-63.98 1759,-54.71 1759,-46.11"/>
<polygon fill="black" stroke="black" points="1762.5,-46.1 1759,-36.1 1755.5,-46.1 1762.5,-46.1"/>
</g>
<!-- 2113180187568 -->
<g id="node58" class="node">
<title>2113180187568</title>
<ellipse fill="none" stroke="black" cx="1833" cy="-260.61" rx="36" ry="18"/>
<text text-anchor="middle" x="1833" y="-256.91" font-family="Times New Roman,serif" font-size="14.00">randint</text>
</g>
<!-- 2113180187952&#45;&gt;2113180187568 -->
<g id="edge57" class="edge">
<title>2113180187952&#45;&gt;2113180187568</title>
<path fill="none" stroke="black" d="M1737.06,-327.98C1755.16,-315.46 1783.29,-296 1804.42,-281.38"/>
<polygon fill="black" stroke="black" points="1806.48,-284.21 1812.71,-275.65 1802.5,-278.46 1806.48,-284.21"/>
</g>
<!-- 2113180187856 -->
<g id="node64" class="node">
<title>2113180187856</title>
<ellipse fill="none" stroke="black" cx="2028" cy="-260.61" rx="36" ry="18"/>
<text text-anchor="middle" x="2028" y="-256.91" font-family="Times New Roman,serif" font-size="14.00">randint</text>
</g>
<!-- 2113180187952&#45;&gt;2113180187856 -->
<g id="edge63" class="edge">
<title>2113180187952&#45;&gt;2113180187856</title>
<path fill="none" stroke="black" d="M1739.62,-329.8C1744.57,-327.5 1749.9,-325.24 1755,-323.48 1833.77,-296.32 1929.48,-277.79 1984.11,-268.51"/>
<polygon fill="black" stroke="black" points="1984.86,-271.93 1994.15,-266.83 1983.71,-265.03 1984.86,-271.93"/>
</g>
<!-- 2113180187328 -->
<g id="node59" class="node">
<title>2113180187328</title>
<ellipse fill="none" stroke="black" cx="1741" cy="-170.87" rx="27" ry="18"/>
<text text-anchor="middle" x="1741" y="-167.17" font-family="Times New Roman,serif" font-size="14.00">400</text>
</g>
<!-- 2113180187568&#45;&gt;2113180187328 -->
<g id="edge58" class="edge">
<title>2113180187568&#45;&gt;2113180187328</title>
<path fill="none" stroke="black" d="M1816.97,-244.33C1802.2,-230.23 1780.11,-209.17 1763.56,-193.38"/>
<polygon fill="black" stroke="black" points="1765.58,-190.48 1755.93,-186.11 1760.75,-195.54 1765.58,-190.48"/>
</g>
<!-- 2113180187424 -->
<g id="node60" class="node">
<title>2113180187424</title>
<ellipse fill="none" stroke="black" cx="1833" cy="-170.87" rx="47.25" ry="26.74"/>
<text text-anchor="middle" x="1833" y="-174.67" font-family="Times New Roman,serif" font-size="14.00">UnaryOp</text>
<text text-anchor="middle" x="1833" y="-159.67" font-family="Times New Roman,serif" font-size="14.00">USub</text>
</g>
<!-- 2113180187568&#45;&gt;2113180187424 -->
<g id="edge59" class="edge">
<title>2113180187568&#45;&gt;2113180187424</title>
<path fill="none" stroke="black" d="M1833,-242.28C1833,-232.46 1833,-219.82 1833,-207.95"/>
<polygon fill="black" stroke="black" points="1836.5,-207.82 1833,-197.82 1829.5,-207.82 1836.5,-207.82"/>
</g>
<!-- 2113180187520 -->
<g id="node62" class="node">
<title>2113180187520</title>
<ellipse fill="none" stroke="black" cx="1941" cy="-170.87" rx="42.49" ry="18"/>
<text text-anchor="middle" x="1941" y="-167.17" font-family="Times New Roman,serif" font-size="14.00">Attribute</text>
</g>
<!-- 2113180187568&#45;&gt;2113180187520 -->
<g id="edge61" class="edge">
<title>2113180187568&#45;&gt;2113180187520</title>
<path fill="none" stroke="black" d="M1851.32,-244.73C1868.59,-230.69 1894.68,-209.5 1914.27,-193.58"/>
<polygon fill="black" stroke="black" points="1916.67,-196.14 1922.23,-187.12 1912.26,-190.71 1916.67,-196.14"/>
</g>
<!-- 2113180187376 -->
<g id="node61" class="node">
<title>2113180187376</title>
<ellipse fill="none" stroke="black" cx="1846" cy="-90" rx="27" ry="18"/>
<text text-anchor="middle" x="1846" y="-86.3" font-family="Times New Roman,serif" font-size="14.00">400</text>
</g>
<!-- 2113180187424&#45;&gt;2113180187376 -->
<g id="edge60" class="edge">
<title>2113180187424&#45;&gt;2113180187376</title>
<path fill="none" stroke="black" d="M1837.26,-144.05C1838.63,-135.71 1840.16,-126.44 1841.55,-118.02"/>
<polygon fill="black" stroke="black" points="1845.04,-118.37 1843.21,-107.93 1838.13,-117.23 1845.04,-118.37"/>
</g>
<!-- 2113180187472 -->
<g id="node63" class="node">
<title>2113180187472</title>
<ellipse fill="none" stroke="black" cx="1941" cy="-90" rx="38.19" ry="18"/>
<text text-anchor="middle" x="1941" y="-86.3" font-family="Times New Roman,serif" font-size="14.00">random</text>
</g>
<!-- 2113180187520&#45;&gt;2113180187472 -->
<g id="edge62" class="edge">
<title>2113180187520&#45;&gt;2113180187472</title>
<path fill="none" stroke="black" d="M1941,-152.76C1941,-142.73 1941,-129.84 1941,-118.42"/>
<polygon fill="black" stroke="black" points="1944.5,-118.08 1941,-108.08 1937.5,-118.08 1944.5,-118.08"/>
</g>
<!-- 2113180187616 -->
<g id="node65" class="node">
<title>2113180187616</title>
<ellipse fill="none" stroke="black" cx="2028" cy="-170.87" rx="27" ry="18"/>
<text text-anchor="middle" x="2028" y="-167.17" font-family="Times New Roman,serif" font-size="14.00">400</text>
</g>
<!-- 2113180187856&#45;&gt;2113180187616 -->
<g id="edge64" class="edge">
<title>2113180187856&#45;&gt;2113180187616</title>
<path fill="none" stroke="black" d="M2028,-242.28C2028,-229.94 2028,-213.12 2028,-199.01"/>
<polygon fill="black" stroke="black" points="2031.5,-198.87 2028,-188.87 2024.5,-198.87 2031.5,-198.87"/>
</g>
<!-- 2113180187712 -->
<g id="node66" class="node">
<title>2113180187712</title>
<ellipse fill="none" stroke="black" cx="2120" cy="-170.87" rx="47.25" ry="26.74"/>
<text text-anchor="middle" x="2120" y="-174.67" font-family="Times New Roman,serif" font-size="14.00">UnaryOp</text>
<text text-anchor="middle" x="2120" y="-159.67" font-family="Times New Roman,serif" font-size="14.00">USub</text>
</g>
<!-- 2113180187856&#45;&gt;2113180187712 -->
<g id="edge65" class="edge">
<title>2113180187856&#45;&gt;2113180187712</title>
<path fill="none" stroke="black" d="M2044.03,-244.33C2056.3,-232.62 2073.62,-216.1 2088.62,-201.79"/>
<polygon fill="black" stroke="black" points="2091.4,-203.99 2096.22,-194.55 2086.57,-198.92 2091.4,-203.99"/>
</g>
<!-- 2113180187808 -->
<g id="node68" class="node">
<title>2113180187808</title>
<ellipse fill="none" stroke="black" cx="2228" cy="-170.87" rx="42.49" ry="18"/>
<text text-anchor="middle" x="2228" y="-167.17" font-family="Times New Roman,serif" font-size="14.00">Attribute</text>
</g>
<!-- 2113180187856&#45;&gt;2113180187808 -->
<g id="edge67" class="edge">
<title>2113180187856&#45;&gt;2113180187808</title>
<path fill="none" stroke="black" d="M2049.54,-246.14C2056.84,-241.88 2065.13,-237.34 2073,-233.74 2117.1,-213.57 2131.31,-216.58 2176,-197.74 2181.65,-195.36 2187.56,-192.64 2193.28,-189.89"/>
<polygon fill="black" stroke="black" points="2195.22,-192.84 2202.64,-185.28 2192.12,-186.56 2195.22,-192.84"/>
</g>
<!-- 2113180187664 -->
<g id="node67" class="node">
<title>2113180187664</title>
<ellipse fill="none" stroke="black" cx="2120" cy="-90" rx="27" ry="18"/>
<text text-anchor="middle" x="2120" y="-86.3" font-family="Times New Roman,serif" font-size="14.00">400</text>
</g>
<!-- 2113180187712&#45;&gt;2113180187664 -->
<g id="edge66" class="edge">
<title>2113180187712&#45;&gt;2113180187664</title>
<path fill="none" stroke="black" d="M2120,-143.61C2120,-135.51 2120,-126.57 2120,-118.39"/>
<polygon fill="black" stroke="black" points="2123.5,-118.22 2120,-108.22 2116.5,-118.22 2123.5,-118.22"/>
</g>
<!-- 2113180187760 -->
<g id="node69" class="node">
<title>2113180187760</title>
<ellipse fill="none" stroke="black" cx="2228" cy="-90" rx="38.19" ry="18"/>
<text text-anchor="middle" x="2228" y="-86.3" font-family="Times New Roman,serif" font-size="14.00">random</text>
</g>
<!-- 2113180187808&#45;&gt;2113180187760 -->
<g id="edge68" class="edge">
<title>2113180187808&#45;&gt;2113180187760</title>
<path fill="none" stroke="black" d="M2228,-152.76C2228,-142.73 2228,-129.84 2228,-118.42"/>
<polygon fill="black" stroke="black" points="2231.5,-118.08 2228,-108.08 2224.5,-118.08 2231.5,-118.08"/>
</g>
<!-- 2113180188192 -->
<g id="node72" class="node">
<title>2113180188192</title>
<ellipse fill="none" stroke="black" cx="2109" cy="-260.61" rx="27" ry="18"/>
<text text-anchor="middle" x="2109" y="-256.91" font-family="Times New Roman,serif" font-size="14.00">60</text>
</g>
<!-- 2113180188288&#45;&gt;2113180188192 -->
<g id="edge71" class="edge">
<title>2113180188288&#45;&gt;2113180188192</title>
<path fill="none" stroke="black" d="M1900.43,-329.72C1905.81,-327.47 1911.55,-325.25 1917,-323.48 1984.67,-301.48 2008.17,-316.82 2073,-287.48 2076.94,-285.7 2080.89,-283.45 2084.65,-281.02"/>
<polygon fill="black" stroke="black" points="2086.81,-283.79 2093,-275.19 2082.8,-278.05 2086.81,-283.79"/>
</g>
</g>
</svg>
