<?xml version="1.0" encoding="UTF-8" standalone="no"?>
<!DOCTYPE svg PUBLIC "-//W3C//DTD SVG 1.1//EN"
 "http://www.w3.org/Graphics/SVG/1.1/DTD/svg11.dtd">
<!-- Generated by graphviz version 2.50.0 (0)
 -->
<!-- Pages: 1 -->
<svg width="502pt" height="260pt"
 viewBox="0.00 0.00 502.00 260.00" xmlns="http://www.w3.org/2000/svg" xmlns:xlink="http://www.w3.org/1999/xlink">
<g id="graph0" class="graph" transform="scale(1 1) rotate(0) translate(4 256)">
<polygon fill="white" stroke="transparent" points="-4,4 -4,-256 498,-256 498,4 -4,4"/>
<!-- 1933434781648 -->
<g id="node1" class="node">
<title>1933434781648</title>
<ellipse fill="none" stroke="black" cx="243" cy="-234" rx="38.19" ry="18"/>
<text text-anchor="middle" x="243" y="-230.3" font-family="Times New Roman,serif" font-size="14.00">Module</text>
</g>
<!-- 1933434779680 -->
<g id="node2" class="node">
<title>1933434779680</title>
<ellipse fill="none" stroke="black" cx="243" cy="-162" rx="27" ry="18"/>
<text text-anchor="middle" x="243" y="-158.3" font-family="Times New Roman,serif" font-size="14.00">For</text>
</g>
<!-- 1933434781648&#45;&gt;1933434779680 -->
<g id="edge1" class="edge">
<title>1933434781648&#45;&gt;1933434779680</title>
<path fill="none" stroke="black" d="M243,-215.7C243,-207.98 243,-198.71 243,-190.11"/>
<polygon fill="black" stroke="black" points="246.5,-190.1 243,-180.1 239.5,-190.1 246.5,-190.1"/>
</g>
<!-- 1933435130144 -->
<g id="node3" class="node">
<title>1933435130144</title>
<ellipse fill="none" stroke="black" cx="27" cy="-90" rx="27" ry="18"/>
<text text-anchor="middle" x="27" y="-86.3" font-family="Times New Roman,serif" font-size="14.00">fd</text>
</g>
<!-- 1933434779680&#45;&gt;1933435130144 -->
<g id="edge2" class="edge">
<title>1933434779680&#45;&gt;1933435130144</title>
<path fill="none" stroke="black" d="M217.85,-154.91C182.68,-146.1 117.04,-128.57 63,-108 61.16,-107.3 59.28,-106.54 57.4,-105.75"/>
<polygon fill="black" stroke="black" points="58.64,-102.48 48.08,-101.62 55.81,-108.88 58.64,-102.48"/>
</g>
<!-- 1933435130336 -->
<g id="node5" class="node">
<title>1933435130336</title>
<ellipse fill="orange" stroke="orange" cx="99" cy="-90" rx="27.1" ry="18"/>
<text text-anchor="middle" x="99" y="-86.3" font-family="Times New Roman,serif" font-size="14.00">right</text>
</g>
<!-- 1933434779680&#45;&gt;1933435130336 -->
<g id="edge4" class="edge">
<title>1933434779680&#45;&gt;1933435130336</title>
<path fill="none" stroke="black" d="M221.75,-150.67C197.4,-138.83 157.28,-119.33 129.57,-105.86"/>
<polygon fill="black" stroke="black" points="130.86,-102.6 120.33,-101.37 127.8,-108.89 130.86,-102.6"/>
</g>
<!-- 1933435130528 -->
<g id="node7" class="node">
<title>1933435130528</title>
<ellipse fill="none" stroke="black" cx="171" cy="-90" rx="27" ry="18"/>
<text text-anchor="middle" x="171" y="-86.3" font-family="Times New Roman,serif" font-size="14.00">fd</text>
</g>
<!-- 1933434779680&#45;&gt;1933435130528 -->
<g id="edge6" class="edge">
<title>1933434779680&#45;&gt;1933435130528</title>
<path fill="none" stroke="black" d="M228.43,-146.83C218.25,-136.94 204.48,-123.55 192.97,-112.36"/>
<polygon fill="black" stroke="black" points="195.41,-109.85 185.8,-105.38 190.53,-114.87 195.41,-109.85"/>
</g>
<!-- 1933435130720 -->
<g id="node9" class="node">
<title>1933435130720</title>
<ellipse fill="none" stroke="black" cx="243" cy="-90" rx="27" ry="18"/>
<text text-anchor="middle" x="243" y="-86.3" font-family="Times New Roman,serif" font-size="14.00">left</text>
</g>
<!-- 1933434779680&#45;&gt;1933435130720 -->
<g id="edge8" class="edge">
<title>1933434779680&#45;&gt;1933435130720</title>
<path fill="none" stroke="black" d="M243,-143.7C243,-135.98 243,-126.71 243,-118.11"/>
<polygon fill="black" stroke="black" points="246.5,-118.1 243,-108.1 239.5,-118.1 246.5,-118.1"/>
</g>
<!-- 1933435130912 -->
<g id="node11" class="node">
<title>1933435130912</title>
<ellipse fill="none" stroke="black" cx="315" cy="-90" rx="27" ry="18"/>
<text text-anchor="middle" x="315" y="-86.3" font-family="Times New Roman,serif" font-size="14.00">fd</text>
</g>
<!-- 1933434779680&#45;&gt;1933435130912 -->
<g id="edge10" class="edge">
<title>1933434779680&#45;&gt;1933435130912</title>
<path fill="none" stroke="black" d="M257.57,-146.83C267.75,-136.94 281.52,-123.55 293.03,-112.36"/>
<polygon fill="black" stroke="black" points="295.47,-114.87 300.2,-105.38 290.59,-109.85 295.47,-114.87"/>
</g>
<!-- 1933434779296 -->
<g id="node13" class="node">
<title>1933434779296</title>
<ellipse fill="none" stroke="black" cx="391" cy="-90" rx="30.59" ry="18"/>
<text text-anchor="middle" x="391" y="-86.3" font-family="Times New Roman,serif" font-size="14.00">range</text>
</g>
<!-- 1933434779680&#45;&gt;1933434779296 -->
<g id="edge12" class="edge">
<title>1933434779680&#45;&gt;1933434779296</title>
<path fill="none" stroke="black" d="M264.52,-150.82C289.3,-139.1 330.25,-119.73 358.82,-106.22"/>
<polygon fill="black" stroke="black" points="360.45,-109.32 367.99,-101.88 357.46,-102.99 360.45,-109.32"/>
</g>
<!-- 1933434779632 -->
<g id="node15" class="node">
<title>1933434779632</title>
<ellipse fill="none" stroke="black" cx="467" cy="-90" rx="27" ry="18"/>
<text text-anchor="middle" x="467" y="-86.3" font-family="Times New Roman,serif" font-size="14.00">i</text>
</g>
<!-- 1933434779680&#45;&gt;1933434779632 -->
<g id="edge14" class="edge">
<title>1933434779680&#45;&gt;1933434779632</title>
<path fill="none" stroke="black" d="M268.36,-155.27C304.89,-146.71 374.15,-129.27 431,-108 432.84,-107.31 434.73,-106.56 436.61,-105.78"/>
<polygon fill="black" stroke="black" points="438.2,-108.91 445.93,-101.66 435.37,-102.5 438.2,-108.91"/>
</g>
<!-- 1933435130048 -->
<g id="node4" class="node">
<title>1933435130048</title>
<ellipse fill="none" stroke="black" cx="27" cy="-18" rx="27" ry="18"/>
<text text-anchor="middle" x="27" y="-14.3" font-family="Times New Roman,serif" font-size="14.00">100</text>
</g>
<!-- 1933435130144&#45;&gt;1933435130048 -->
<g id="edge3" class="edge">
<title>1933435130144&#45;&gt;1933435130048</title>
<path fill="none" stroke="black" d="M27,-71.7C27,-63.98 27,-54.71 27,-46.11"/>
<polygon fill="black" stroke="black" points="30.5,-46.1 27,-36.1 23.5,-46.1 30.5,-46.1"/>
</g>
<!-- 1933435130240 -->
<g id="node6" class="node">
<title>1933435130240</title>
<ellipse fill="orange" stroke="orange" cx="99" cy="-18" rx="27" ry="18"/>
<text text-anchor="middle" x="99" y="-14.3" font-family="Times New Roman,serif" font-size="14.00">180</text>
</g>
<!-- 1933435130336&#45;&gt;1933435130240 -->
<g id="edge5" class="edge">
<title>1933435130336&#45;&gt;1933435130240</title>
<path fill="none" stroke="black" d="M99,-71.7C99,-63.98 99,-54.71 99,-46.11"/>
<polygon fill="black" stroke="black" points="102.5,-46.1 99,-36.1 95.5,-46.1 102.5,-46.1"/>
</g>
<!-- 1933435130432 -->
<g id="node8" class="node">
<title>1933435130432</title>
<ellipse fill="none" stroke="black" cx="171" cy="-18" rx="27" ry="18"/>
<text text-anchor="middle" x="171" y="-14.3" font-family="Times New Roman,serif" font-size="14.00">100</text>
</g>
<!-- 1933435130528&#45;&gt;1933435130432 -->
<g id="edge7" class="edge">
<title>1933435130528&#45;&gt;1933435130432</title>
<path fill="none" stroke="black" d="M171,-71.7C171,-63.98 171,-54.71 171,-46.11"/>
<polygon fill="black" stroke="black" points="174.5,-46.1 171,-36.1 167.5,-46.1 174.5,-46.1"/>
</g>
<!-- 1933435130624 -->
<g id="node10" class="node">
<title>1933435130624</title>
<ellipse fill="none" stroke="black" cx="243" cy="-18" rx="27" ry="18"/>
<text text-anchor="middle" x="243" y="-14.3" font-family="Times New Roman,serif" font-size="14.00">90</text>
</g>
<!-- 1933435130720&#45;&gt;1933435130624 -->
<g id="edge9" class="edge">
<title>1933435130720&#45;&gt;1933435130624</title>
<path fill="none" stroke="black" d="M243,-71.7C243,-63.98 243,-54.71 243,-46.11"/>
<polygon fill="black" stroke="black" points="246.5,-46.1 243,-36.1 239.5,-46.1 246.5,-46.1"/>
</g>
<!-- 1933435130816 -->
<g id="node12" class="node">
<title>1933435130816</title>
<ellipse fill="none" stroke="black" cx="315" cy="-18" rx="27" ry="18"/>
<text text-anchor="middle" x="315" y="-14.3" font-family="Times New Roman,serif" font-size="14.00">100</text>
</g>
<!-- 1933435130912&#45;&gt;1933435130816 -->
<g id="edge11" class="edge">
<title>1933435130912&#45;&gt;1933435130816</title>
<path fill="none" stroke="black" d="M315,-71.7C315,-63.98 315,-54.71 315,-46.11"/>
<polygon fill="black" stroke="black" points="318.5,-46.1 315,-36.1 311.5,-46.1 318.5,-46.1"/>
</g>
<!-- 1933434779584 -->
<g id="node14" class="node">
<title>1933434779584</title>
<ellipse fill="none" stroke="black" cx="391" cy="-18" rx="27" ry="18"/>
<text text-anchor="middle" x="391" y="-14.3" font-family="Times New Roman,serif" font-size="14.00">500</text>
</g>
<!-- 1933434779296&#45;&gt;1933434779584 -->
<g id="edge13" class="edge">
<title>1933434779296&#45;&gt;1933434779584</title>
<path fill="none" stroke="black" d="M391,-71.7C391,-63.98 391,-54.71 391,-46.11"/>
<polygon fill="black" stroke="black" points="394.5,-46.1 391,-36.1 387.5,-46.1 394.5,-46.1"/>
</g>
</g>
</svg>
