<?xml version="1.0" encoding="UTF-8" standalone="no"?>
<!DOCTYPE svg PUBLIC "-//W3C//DTD SVG 1.1//EN"
 "http://www.w3.org/Graphics/SVG/1.1/DTD/svg11.dtd">
<!-- Generated by graphviz version 2.50.0 (0)
 -->
<!-- Pages: 1 -->
<svg width="332pt" height="223pt"
 viewBox="0.00 0.00 332.17 223.48" xmlns="http://www.w3.org/2000/svg" xmlns:xlink="http://www.w3.org/1999/xlink">
<g id="graph0" class="graph" transform="scale(1 1) rotate(0) translate(4 219.48)">
<polygon fill="white" stroke="transparent" points="-4,4 -4,-219.48 328.17,-219.48 328.17,4 -4,4"/>
<!-- 2063947933456 -->
<g id="node1" class="node">
<title>2063947933456</title>
<ellipse fill="none" stroke="black" cx="162.08" cy="-197.48" rx="38.19" ry="18"/>
<text text-anchor="middle" x="162.08" y="-193.78" font-family="Times New Roman,serif" font-size="14.00">Module</text>
</g>
<!-- 2063947937632 -->
<g id="node2" class="node">
<title>2063947937632</title>
<ellipse fill="none" stroke="black" cx="66.08" cy="-116.61" rx="30.31" ry="26.74"/>
<text text-anchor="middle" x="66.08" y="-120.41" font-family="Times New Roman,serif" font-size="14.00">Call:</text>
<text text-anchor="middle" x="66.08" y="-105.41" font-family="Times New Roman,serif" font-size="14.00">fd</text>
</g>
<!-- 2063947933456&#45;&gt;2063947937632 -->
<g id="edge1" class="edge">
<title>2063947933456&#45;&gt;2063947937632</title>
<path fill="none" stroke="black" d="M143.57,-181.27C130.03,-170.14 111.36,-154.81 95.74,-141.98"/>
<polygon fill="black" stroke="black" points="97.85,-139.18 87.9,-135.53 93.4,-144.58 97.85,-139.18"/>
</g>
<!-- 2063947937824 -->
<g id="node4" class="node">
<title>2063947937824</title>
<ellipse fill="none" stroke="black" cx="162.08" cy="-116.61" rx="30.31" ry="26.74"/>
<text text-anchor="middle" x="162.08" y="-120.41" font-family="Times New Roman,serif" font-size="14.00">Call:</text>
<text text-anchor="middle" x="162.08" y="-105.41" font-family="Times New Roman,serif" font-size="14.00">left</text>
</g>
<!-- 2063947933456&#45;&gt;2063947937824 -->
<g id="edge3" class="edge">
<title>2063947933456&#45;&gt;2063947937824</title>
<path fill="none" stroke="black" d="M162.08,-179.37C162.08,-171.88 162.08,-162.79 162.08,-153.91"/>
<polygon fill="black" stroke="black" points="165.58,-153.69 162.08,-143.69 158.58,-153.69 165.58,-153.69"/>
</g>
<!-- 2063947938016 -->
<g id="node6" class="node">
<title>2063947938016</title>
<ellipse fill="none" stroke="black" cx="258.08" cy="-116.61" rx="30.31" ry="26.74"/>
<text text-anchor="middle" x="258.08" y="-120.41" font-family="Times New Roman,serif" font-size="14.00">Call:</text>
<text text-anchor="middle" x="258.08" y="-105.41" font-family="Times New Roman,serif" font-size="14.00">fd</text>
</g>
<!-- 2063947933456&#45;&gt;2063947938016 -->
<g id="edge5" class="edge">
<title>2063947933456&#45;&gt;2063947938016</title>
<path fill="none" stroke="black" d="M180.59,-181.27C194.14,-170.14 212.81,-154.81 228.42,-141.98"/>
<polygon fill="black" stroke="black" points="230.76,-144.58 236.27,-135.53 226.32,-139.18 230.76,-144.58"/>
</g>
<!-- 2063947937536 -->
<g id="node3" class="node">
<title>2063947937536</title>
<ellipse fill="none" stroke="black" cx="48.08" cy="-26.87" rx="48.17" ry="26.74"/>
<text text-anchor="middle" x="48.08" y="-30.67" font-family="Times New Roman,serif" font-size="14.00">Constant:</text>
<text text-anchor="middle" x="48.08" y="-15.67" font-family="Times New Roman,serif" font-size="14.00">100</text>
</g>
<!-- 2063947937632&#45;&gt;2063947937536 -->
<g id="edge2" class="edge">
<title>2063947937632&#45;&gt;2063947937536</title>
<path fill="none" stroke="black" d="M60.78,-89.76C59.11,-81.62 57.24,-72.48 55.45,-63.77"/>
<polygon fill="black" stroke="black" points="58.85,-62.93 53.41,-53.84 51.99,-64.34 58.85,-62.93"/>
</g>
<!-- 2063947937728 -->
<g id="node5" class="node">
<title>2063947937728</title>
<ellipse fill="none" stroke="black" cx="162.08" cy="-26.87" rx="48.17" ry="26.74"/>
<text text-anchor="middle" x="162.08" y="-30.67" font-family="Times New Roman,serif" font-size="14.00">Constant:</text>
<text text-anchor="middle" x="162.08" y="-15.67" font-family="Times New Roman,serif" font-size="14.00">90</text>
</g>
<!-- 2063947937824&#45;&gt;2063947937728 -->
<g id="edge4" class="edge">
<title>2063947937824&#45;&gt;2063947937728</title>
<path fill="none" stroke="black" d="M162.08,-89.29C162.08,-81.32 162.08,-72.43 162.08,-63.94"/>
<polygon fill="black" stroke="black" points="165.58,-63.87 162.08,-53.87 158.58,-63.87 165.58,-63.87"/>
</g>
<!-- 2063947937920 -->
<g id="node7" class="node">
<title>2063947937920</title>
<ellipse fill="none" stroke="black" cx="276.08" cy="-26.87" rx="48.17" ry="26.74"/>
<text text-anchor="middle" x="276.08" y="-30.67" font-family="Times New Roman,serif" font-size="14.00">Constant:</text>
<text text-anchor="middle" x="276.08" y="-15.67" font-family="Times New Roman,serif" font-size="14.00">100</text>
</g>
<!-- 2063947938016&#45;&gt;2063947937920 -->
<g id="edge6" class="edge">
<title>2063947938016&#45;&gt;2063947937920</title>
<path fill="none" stroke="black" d="M263.39,-89.76C265.06,-81.62 266.93,-72.48 268.72,-63.77"/>
<polygon fill="black" stroke="black" points="272.17,-64.34 270.76,-53.84 265.32,-62.93 272.17,-64.34"/>
</g>
</g>
</svg>
