<?xml version="1.0" encoding="UTF-8" standalone="no"?>
<!DOCTYPE svg PUBLIC "-//W3C//DTD SVG 1.1//EN"
 "http://www.w3.org/Graphics/SVG/1.1/DTD/svg11.dtd">
<!-- Generated by graphviz version 2.50.0 (0)
 -->
<!-- Pages: 1 -->
<svg width="85pt" height="188pt"
 viewBox="0.00 0.00 84.69 188.00" xmlns="http://www.w3.org/2000/svg" xmlns:xlink="http://www.w3.org/1999/xlink">
<g id="graph0" class="graph" transform="scale(1 1) rotate(0) translate(4 184)">
<polygon fill="white" stroke="transparent" points="-4,4 -4,-184 80.69,-184 80.69,4 -4,4"/>
<!-- 2796630291888 -->
<g id="node1" class="node">
<title>2796630291888</title>
<ellipse fill="none" stroke="black" cx="38.35" cy="-162" rx="38.19" ry="18"/>
<text text-anchor="middle" x="38.35" y="-158.3" font-family="Times New Roman,serif" font-size="14.00">Module</text>
</g>
<!-- 2796630291696 -->
<g id="node2" class="node">
<title>2796630291696</title>
<ellipse fill="orange" stroke="orange" cx="38.35" cy="-90" rx="27" ry="18"/>
<text text-anchor="middle" x="38.35" y="-86.3" font-family="Times New Roman,serif" font-size="14.00">fd</text>
</g>
<!-- 2796630291888&#45;&gt;2796630291696 -->
<g id="edge1" class="edge">
<title>2796630291888&#45;&gt;2796630291696</title>
<path fill="none" stroke="black" d="M38.35,-143.7C38.35,-135.98 38.35,-126.71 38.35,-118.11"/>
<polygon fill="black" stroke="black" points="41.85,-118.1 38.35,-108.1 34.85,-118.1 41.85,-118.1"/>
</g>
<!-- 2796630291600 -->
<g id="node3" class="node">
<title>2796630291600</title>
<ellipse fill="orange" stroke="orange" cx="38.35" cy="-18" rx="27" ry="18"/>
<text text-anchor="middle" x="38.35" y="-14.3" font-family="Times New Roman,serif" font-size="14.00">100</text>
</g>
<!-- 2796630291696&#45;&gt;2796630291600 -->
<g id="edge2" class="edge">
<title>2796630291696&#45;&gt;2796630291600</title>
<path fill="none" stroke="black" d="M38.35,-71.7C38.35,-63.98 38.35,-54.71 38.35,-46.11"/>
<polygon fill="black" stroke="black" points="41.85,-46.1 38.35,-36.1 34.85,-46.1 41.85,-46.1"/>
</g>
</g>
</svg>
