<?xml version="1.0" encoding="UTF-8" standalone="no"?>
<!DOCTYPE svg PUBLIC "-//W3C//DTD SVG 1.1//EN"
 "http://www.w3.org/Graphics/SVG/1.1/DTD/svg11.dtd">
<!-- Generated by graphviz version 2.50.0 (0)
 -->
<!-- Pages: 1 -->
<svg width="134pt" height="188pt"
 viewBox="0.00 0.00 134.00 188.00" xmlns="http://www.w3.org/2000/svg" xmlns:xlink="http://www.w3.org/1999/xlink">
<g id="graph0" class="graph" transform="scale(1 1) rotate(0) translate(4 184)">
<polygon fill="white" stroke="transparent" points="-4,4 -4,-184 130,-184 130,4 -4,4"/>
<!-- 1856918041168 -->
<g id="node1" class="node">
<title>1856918041168</title>
<ellipse fill="none" stroke="black" cx="63" cy="-162" rx="38.19" ry="18"/>
<text text-anchor="middle" x="63" y="-158.3" font-family="Times New Roman,serif" font-size="14.00">Module</text>
</g>
<!-- 1856918041744 -->
<g id="node2" class="node">
<title>1856918041744</title>
<ellipse fill="orange" stroke="orange" cx="27" cy="-90" rx="27" ry="18"/>
<text text-anchor="middle" x="27" y="-86.3" font-family="Times New Roman,serif" font-size="14.00">left</text>
</g>
<!-- 1856918041168&#45;&gt;1856918041744 -->
<g id="edge1" class="edge">
<title>1856918041168&#45;&gt;1856918041744</title>
<path fill="none" stroke="black" d="M54.47,-144.41C50.16,-136.04 44.85,-125.71 40.05,-116.37"/>
<polygon fill="black" stroke="black" points="43.16,-114.76 35.47,-107.47 36.93,-117.96 43.16,-114.76"/>
</g>
<!-- 1856918041936 -->
<g id="node4" class="node">
<title>1856918041936</title>
<ellipse fill="none" stroke="black" cx="99" cy="-90" rx="27" ry="18"/>
<text text-anchor="middle" x="99" y="-86.3" font-family="Times New Roman,serif" font-size="14.00">fd</text>
</g>
<!-- 1856918041168&#45;&gt;1856918041936 -->
<g id="edge3" class="edge">
<title>1856918041168&#45;&gt;1856918041936</title>
<path fill="none" stroke="black" d="M71.53,-144.41C75.84,-136.04 81.15,-125.71 85.95,-116.37"/>
<polygon fill="black" stroke="black" points="89.07,-117.96 90.53,-107.47 82.84,-114.76 89.07,-117.96"/>
</g>
<!-- 1856918041552 -->
<g id="node3" class="node">
<title>1856918041552</title>
<ellipse fill="orange" stroke="orange" cx="27" cy="-18" rx="27" ry="18"/>
<text text-anchor="middle" x="27" y="-14.3" font-family="Times New Roman,serif" font-size="14.00">90</text>
</g>
<!-- 1856918041744&#45;&gt;1856918041552 -->
<g id="edge2" class="edge">
<title>1856918041744&#45;&gt;1856918041552</title>
<path fill="none" stroke="black" d="M27,-71.7C27,-63.98 27,-54.71 27,-46.11"/>
<polygon fill="black" stroke="black" points="30.5,-46.1 27,-36.1 23.5,-46.1 30.5,-46.1"/>
</g>
<!-- 1856918041840 -->
<g id="node5" class="node">
<title>1856918041840</title>
<ellipse fill="none" stroke="black" cx="99" cy="-18" rx="27" ry="18"/>
<text text-anchor="middle" x="99" y="-14.3" font-family="Times New Roman,serif" font-size="14.00">100</text>
</g>
<!-- 1856918041936&#45;&gt;1856918041840 -->
<g id="edge4" class="edge">
<title>1856918041936&#45;&gt;1856918041840</title>
<path fill="none" stroke="black" d="M99,-71.7C99,-63.98 99,-54.71 99,-46.11"/>
<polygon fill="black" stroke="black" points="102.5,-46.1 99,-36.1 95.5,-46.1 102.5,-46.1"/>
</g>
</g>
</svg>
