<?xml version="1.0" encoding="UTF-8" standalone="no"?>
<!DOCTYPE svg PUBLIC "-//W3C//DTD SVG 1.1//EN"
 "http://www.w3.org/Graphics/SVG/1.1/DTD/svg11.dtd">
<!-- Generated by graphviz version 2.50.0 (0)
 -->
<!-- Pages: 1 -->
<svg width="358pt" height="260pt"
 viewBox="0.00 0.00 358.00 260.00" xmlns="http://www.w3.org/2000/svg" xmlns:xlink="http://www.w3.org/1999/xlink">
<g id="graph0" class="graph" transform="scale(1 1) rotate(0) translate(4 256)">
<polygon fill="white" stroke="transparent" points="-4,4 -4,-256 354,-256 354,4 -4,4"/>
<!-- 1836952027088 -->
<g id="node1" class="node">
<title>1836952027088</title>
<ellipse fill="none" stroke="black" cx="171" cy="-234" rx="38.19" ry="18"/>
<text text-anchor="middle" x="171" y="-230.3" font-family="Times New Roman,serif" font-size="14.00">Module</text>
</g>
<!-- 1836952025120 -->
<g id="node2" class="node">
<title>1836952025120</title>
<ellipse fill="none" stroke="black" cx="171" cy="-162" rx="27" ry="18"/>
<text text-anchor="middle" x="171" y="-158.3" font-family="Times New Roman,serif" font-size="14.00">For</text>
</g>
<!-- 1836952027088&#45;&gt;1836952025120 -->
<g id="edge1" class="edge">
<title>1836952027088&#45;&gt;1836952025120</title>
<path fill="none" stroke="black" d="M171,-215.7C171,-207.98 171,-198.71 171,-190.11"/>
<polygon fill="black" stroke="black" points="174.5,-190.1 171,-180.1 167.5,-190.1 174.5,-190.1"/>
</g>
<!-- 1836956619424 -->
<g id="node3" class="node">
<title>1836956619424</title>
<ellipse fill="orange" stroke="orange" cx="27" cy="-90" rx="27" ry="18"/>
<text text-anchor="middle" x="27" y="-86.3" font-family="Times New Roman,serif" font-size="14.00">left</text>
</g>
<!-- 1836952025120&#45;&gt;1836956619424 -->
<g id="edge2" class="edge">
<title>1836952025120&#45;&gt;1836956619424</title>
<path fill="none" stroke="black" d="M149.75,-150.67C125.4,-138.83 85.28,-119.33 57.57,-105.86"/>
<polygon fill="black" stroke="black" points="58.86,-102.6 48.33,-101.37 55.8,-108.89 58.86,-102.6"/>
</g>
<!-- 1836956619616 -->
<g id="node5" class="node">
<title>1836956619616</title>
<ellipse fill="none" stroke="black" cx="99" cy="-90" rx="27" ry="18"/>
<text text-anchor="middle" x="99" y="-86.3" font-family="Times New Roman,serif" font-size="14.00">left</text>
</g>
<!-- 1836952025120&#45;&gt;1836956619616 -->
<g id="edge4" class="edge">
<title>1836952025120&#45;&gt;1836956619616</title>
<path fill="none" stroke="black" d="M156.43,-146.83C146.25,-136.94 132.48,-123.55 120.97,-112.36"/>
<polygon fill="black" stroke="black" points="123.41,-109.85 113.8,-105.38 118.53,-114.87 123.41,-109.85"/>
</g>
<!-- 1836952024784 -->
<g id="node7" class="node">
<title>1836952024784</title>
<ellipse fill="none" stroke="black" cx="171" cy="-90" rx="27" ry="18"/>
<text text-anchor="middle" x="171" y="-86.3" font-family="Times New Roman,serif" font-size="14.00">fd</text>
</g>
<!-- 1836952025120&#45;&gt;1836952024784 -->
<g id="edge6" class="edge">
<title>1836952025120&#45;&gt;1836952024784</title>
<path fill="none" stroke="black" d="M171,-143.7C171,-135.98 171,-126.71 171,-118.11"/>
<polygon fill="black" stroke="black" points="174.5,-118.1 171,-108.1 167.5,-118.1 174.5,-118.1"/>
</g>
<!-- 1836952024736 -->
<g id="node9" class="node">
<title>1836952024736</title>
<ellipse fill="none" stroke="black" cx="247" cy="-90" rx="30.59" ry="18"/>
<text text-anchor="middle" x="247" y="-86.3" font-family="Times New Roman,serif" font-size="14.00">range</text>
</g>
<!-- 1836952025120&#45;&gt;1836952024736 -->
<g id="edge8" class="edge">
<title>1836952025120&#45;&gt;1836952024736</title>
<path fill="none" stroke="black" d="M186.38,-146.83C197.05,-137 211.47,-123.72 223.57,-112.58"/>
<polygon fill="black" stroke="black" points="226.14,-114.98 231.12,-105.63 221.39,-109.83 226.14,-114.98"/>
</g>
<!-- 1836952025072 -->
<g id="node11" class="node">
<title>1836952025072</title>
<ellipse fill="none" stroke="black" cx="323" cy="-90" rx="27" ry="18"/>
<text text-anchor="middle" x="323" y="-86.3" font-family="Times New Roman,serif" font-size="14.00">i</text>
</g>
<!-- 1836952025120&#45;&gt;1836952025072 -->
<g id="edge10" class="edge">
<title>1836952025120&#45;&gt;1836952025072</title>
<path fill="none" stroke="black" d="M192.84,-151.12C216.19,-140.53 254.27,-123.2 287,-108 288.79,-107.17 290.62,-106.31 292.47,-105.45"/>
<polygon fill="black" stroke="black" points="294.14,-108.53 301.7,-101.11 291.16,-102.2 294.14,-108.53"/>
</g>
<!-- 1836956619328 -->
<g id="node4" class="node">
<title>1836956619328</title>
<ellipse fill="orange" stroke="orange" cx="27" cy="-18" rx="27" ry="18"/>
<text text-anchor="middle" x="27" y="-14.3" font-family="Times New Roman,serif" font-size="14.00">15</text>
</g>
<!-- 1836956619424&#45;&gt;1836956619328 -->
<g id="edge3" class="edge">
<title>1836956619424&#45;&gt;1836956619328</title>
<path fill="none" stroke="black" d="M27,-71.7C27,-63.98 27,-54.71 27,-46.11"/>
<polygon fill="black" stroke="black" points="30.5,-46.1 27,-36.1 23.5,-46.1 30.5,-46.1"/>
</g>
<!-- 1836956619520 -->
<g id="node6" class="node">
<title>1836956619520</title>
<ellipse fill="none" stroke="black" cx="99" cy="-18" rx="27" ry="18"/>
<text text-anchor="middle" x="99" y="-14.3" font-family="Times New Roman,serif" font-size="14.00">5</text>
</g>
<!-- 1836956619616&#45;&gt;1836956619520 -->
<g id="edge5" class="edge">
<title>1836956619616&#45;&gt;1836956619520</title>
<path fill="none" stroke="black" d="M99,-71.7C99,-63.98 99,-54.71 99,-46.11"/>
<polygon fill="black" stroke="black" points="102.5,-46.1 99,-36.1 95.5,-46.1 102.5,-46.1"/>
</g>
<!-- 1836956619712 -->
<g id="node8" class="node">
<title>1836956619712</title>
<ellipse fill="none" stroke="black" cx="171" cy="-18" rx="27" ry="18"/>
<text text-anchor="middle" x="171" y="-14.3" font-family="Times New Roman,serif" font-size="14.00">10</text>
</g>
<!-- 1836952024784&#45;&gt;1836956619712 -->
<g id="edge7" class="edge">
<title>1836952024784&#45;&gt;1836956619712</title>
<path fill="none" stroke="black" d="M171,-71.7C171,-63.98 171,-54.71 171,-46.11"/>
<polygon fill="black" stroke="black" points="174.5,-46.1 171,-36.1 167.5,-46.1 174.5,-46.1"/>
</g>
<!-- 1836952025024 -->
<g id="node10" class="node">
<title>1836952025024</title>
<ellipse fill="none" stroke="black" cx="247" cy="-18" rx="27" ry="18"/>
<text text-anchor="middle" x="247" y="-14.3" font-family="Times New Roman,serif" font-size="14.00">90</text>
</g>
<!-- 1836952024736&#45;&gt;1836952025024 -->
<g id="edge9" class="edge">
<title>1836952024736&#45;&gt;1836952025024</title>
<path fill="none" stroke="black" d="M247,-71.7C247,-63.98 247,-54.71 247,-46.11"/>
<polygon fill="black" stroke="black" points="250.5,-46.1 247,-36.1 243.5,-46.1 250.5,-46.1"/>
</g>
</g>
</svg>
