<?xml version="1.0" encoding="UTF-8" standalone="no"?>
<!DOCTYPE svg PUBLIC "-//W3C//DTD SVG 1.1//EN"
 "http://www.w3.org/Graphics/SVG/1.1/DTD/svg11.dtd">
<!-- Generated by graphviz version 2.50.0 (0)
 -->
<!-- Pages: 1 -->
<svg width="379pt" height="295pt"
 viewBox="0.00 0.00 378.56 295.48" xmlns="http://www.w3.org/2000/svg" xmlns:xlink="http://www.w3.org/1999/xlink">
<g id="graph0" class="graph" transform="scale(1 1) rotate(0) translate(4 291.48)">
<polygon fill="white" stroke="transparent" points="-4,4 -4,-291.48 374.56,-291.48 374.56,4 -4,4"/>
<!-- 2108978606144 -->
<g id="node1" class="node">
<title>2108978606144</title>
<ellipse fill="none" stroke="black" cx="203.08" cy="-269.48" rx="38.19" ry="18"/>
<text text-anchor="middle" x="203.08" y="-265.78" font-family="Times New Roman,serif" font-size="14.00">Module</text>
</g>
<!-- 2108978606000 -->
<g id="node2" class="node">
<title>2108978606000</title>
<ellipse fill="none" stroke="black" cx="203.08" cy="-197.48" rx="27" ry="18"/>
<text text-anchor="middle" x="203.08" y="-193.78" font-family="Times New Roman,serif" font-size="14.00">For</text>
</g>
<!-- 2108978606144&#45;&gt;2108978606000 -->
<g id="edge1" class="edge">
<title>2108978606144&#45;&gt;2108978606000</title>
<path fill="none" stroke="black" d="M203.08,-251.18C203.08,-243.46 203.08,-234.19 203.08,-225.59"/>
<polygon fill="black" stroke="black" points="206.58,-225.58 203.08,-215.58 199.58,-225.58 206.58,-225.58"/>
</g>
<!-- 2108978605520 -->
<g id="node3" class="node">
<title>2108978605520</title>
<ellipse fill="none" stroke="black" cx="66.08" cy="-116.61" rx="30.31" ry="26.74"/>
<text text-anchor="middle" x="66.08" y="-120.41" font-family="Times New Roman,serif" font-size="14.00">Call:</text>
<text text-anchor="middle" x="66.08" y="-105.41" font-family="Times New Roman,serif" font-size="14.00">left</text>
</g>
<!-- 2108978606000&#45;&gt;2108978605520 -->
<g id="edge2" class="edge">
<title>2108978606000&#45;&gt;2108978605520</title>
<path fill="none" stroke="black" d="M183.16,-185.01C161.39,-172.48 126.12,-152.17 99.98,-137.12"/>
<polygon fill="black" stroke="black" points="101.56,-133.99 91.15,-132.04 98.07,-140.06 101.56,-133.99"/>
</g>
<!-- 2108978605712 -->
<g id="node5" class="node">
<title>2108978605712</title>
<ellipse fill="orange" stroke="orange" cx="162.08" cy="-116.61" rx="30.31" ry="26.74"/>
<text text-anchor="middle" x="162.08" y="-120.41" font-family="Times New Roman,serif" font-size="14.00">Call:</text>
<text text-anchor="middle" x="162.08" y="-105.41" font-family="Times New Roman,serif" font-size="14.00">fd</text>
</g>
<!-- 2108978606000&#45;&gt;2108978605712 -->
<g id="edge4" class="edge">
<title>2108978606000&#45;&gt;2108978605712</title>
<path fill="none" stroke="black" d="M194.59,-180.14C190.13,-171.57 184.51,-160.76 179.2,-150.54"/>
<polygon fill="black" stroke="black" points="182.18,-148.67 174.46,-141.41 175.96,-151.9 182.18,-148.67"/>
</g>
<!-- 2108978605904 -->
<g id="node7" class="node">
<title>2108978605904</title>
<ellipse fill="none" stroke="black" cx="244.08" cy="-116.61" rx="33.47" ry="26.74"/>
<text text-anchor="middle" x="244.08" y="-120.41" font-family="Times New Roman,serif" font-size="14.00">Call:</text>
<text text-anchor="middle" x="244.08" y="-105.41" font-family="Times New Roman,serif" font-size="14.00">range</text>
</g>
<!-- 2108978606000&#45;&gt;2108978605904 -->
<g id="edge6" class="edge">
<title>2108978606000&#45;&gt;2108978605904</title>
<path fill="none" stroke="black" d="M211.58,-180.14C216,-171.64 221.56,-160.93 226.83,-150.79"/>
<polygon fill="black" stroke="black" points="230.04,-152.2 231.55,-141.72 223.83,-148.98 230.04,-152.2"/>
</g>
<!-- 2108978605952 -->
<g id="node9" class="node">
<title>2108978605952</title>
<ellipse fill="none" stroke="black" cx="333.08" cy="-116.61" rx="37.45" ry="26.74"/>
<text text-anchor="middle" x="333.08" y="-120.41" font-family="Times New Roman,serif" font-size="14.00">Name:</text>
<text text-anchor="middle" x="333.08" y="-105.41" font-family="Times New Roman,serif" font-size="14.00">i</text>
</g>
<!-- 2108978606000&#45;&gt;2108978605952 -->
<g id="edge8" class="edge">
<title>2108978606000&#45;&gt;2108978605952</title>
<path fill="none" stroke="black" d="M222.55,-184.67C241.89,-172.94 272.05,-154.64 295.98,-140.12"/>
<polygon fill="black" stroke="black" points="298.08,-142.94 304.81,-134.76 294.45,-136.96 298.08,-142.94"/>
</g>
<!-- 2108978605424 -->
<g id="node4" class="node">
<title>2108978605424</title>
<ellipse fill="none" stroke="black" cx="48.08" cy="-26.87" rx="48.17" ry="26.74"/>
<text text-anchor="middle" x="48.08" y="-30.67" font-family="Times New Roman,serif" font-size="14.00">Constant:</text>
<text text-anchor="middle" x="48.08" y="-15.67" font-family="Times New Roman,serif" font-size="14.00">90</text>
</g>
<!-- 2108978605520&#45;&gt;2108978605424 -->
<g id="edge3" class="edge">
<title>2108978605520&#45;&gt;2108978605424</title>
<path fill="none" stroke="black" d="M60.78,-89.76C59.11,-81.62 57.24,-72.48 55.45,-63.77"/>
<polygon fill="black" stroke="black" points="58.85,-62.93 53.41,-53.84 51.99,-64.34 58.85,-62.93"/>
</g>
<!-- 2108978605616 -->
<g id="node6" class="node">
<title>2108978605616</title>
<ellipse fill="orange" stroke="orange" cx="162.08" cy="-26.87" rx="48.17" ry="26.74"/>
<text text-anchor="middle" x="162.08" y="-30.67" font-family="Times New Roman,serif" font-size="14.00">Constant:</text>
<text text-anchor="middle" x="162.08" y="-15.67" font-family="Times New Roman,serif" font-size="14.00">100</text>
</g>
<!-- 2108978605712&#45;&gt;2108978605616 -->
<g id="edge5" class="edge">
<title>2108978605712&#45;&gt;2108978605616</title>
<path fill="none" stroke="black" d="M162.08,-89.29C162.08,-81.32 162.08,-72.43 162.08,-63.94"/>
<polygon fill="black" stroke="black" points="165.58,-63.87 162.08,-53.87 158.58,-63.87 165.58,-63.87"/>
</g>
<!-- 2108978605808 -->
<g id="node8" class="node">
<title>2108978605808</title>
<ellipse fill="none" stroke="black" cx="276.08" cy="-26.87" rx="48.17" ry="26.74"/>
<text text-anchor="middle" x="276.08" y="-30.67" font-family="Times New Roman,serif" font-size="14.00">Constant:</text>
<text text-anchor="middle" x="276.08" y="-15.67" font-family="Times New Roman,serif" font-size="14.00">4</text>
</g>
<!-- 2108978605904&#45;&gt;2108978605808 -->
<g id="edge7" class="edge">
<title>2108978605904&#45;&gt;2108978605808</title>
<path fill="none" stroke="black" d="M253.17,-90.7C256.32,-82.05 259.92,-72.19 263.32,-62.88"/>
<polygon fill="black" stroke="black" points="266.62,-64.04 266.75,-53.45 260.04,-61.65 266.62,-64.04"/>
</g>
</g>
</svg>
