<?xml version="1.0" encoding="UTF-8" standalone="no"?>
<!DOCTYPE svg PUBLIC "-//W3C//DTD SVG 1.1//EN"
 "http://www.w3.org/Graphics/SVG/1.1/DTD/svg11.dtd">
<!-- Generated by graphviz version 2.50.0 (0)
 -->
<!-- Pages: 1 -->
<svg width="560pt" height="223pt"
 viewBox="0.00 0.00 560.17 223.48" xmlns="http://www.w3.org/2000/svg" xmlns:xlink="http://www.w3.org/1999/xlink">
<g id="graph0" class="graph" transform="scale(1 1) rotate(0) translate(4 219.48)">
<polygon fill="white" stroke="transparent" points="-4,4 -4,-219.48 556.17,-219.48 556.17,4 -4,4"/>
<!-- 2079868795200 -->
<g id="node1" class="node">
<title>2079868795200</title>
<ellipse fill="none" stroke="black" cx="276.08" cy="-197.48" rx="38.19" ry="18"/>
<text text-anchor="middle" x="276.08" y="-193.78" font-family="Times New Roman,serif" font-size="14.00">Module</text>
</g>
<!-- 2079868794048 -->
<g id="node2" class="node">
<title>2079868794048</title>
<ellipse fill="none" stroke="black" cx="83.08" cy="-116.61" rx="30.31" ry="26.74"/>
<text text-anchor="middle" x="83.08" y="-120.41" font-family="Times New Roman,serif" font-size="14.00">Call:</text>
<text text-anchor="middle" x="83.08" y="-105.41" font-family="Times New Roman,serif" font-size="14.00">left</text>
</g>
<!-- 2079868795200&#45;&gt;2079868794048 -->
<g id="edge1" class="edge">
<title>2079868795200&#45;&gt;2079868794048</title>
<path fill="none" stroke="black" d="M246.98,-185.66C219.32,-175.26 176.63,-158.88 140.08,-143.48 133.2,-140.58 125.9,-137.37 118.91,-134.23"/>
<polygon fill="black" stroke="black" points="120.18,-130.96 109.63,-130.02 117.29,-137.34 120.18,-130.96"/>
</g>
<!-- 2079868794240 -->
<g id="node4" class="node">
<title>2079868794240</title>
<ellipse fill="none" stroke="black" cx="179.08" cy="-116.61" rx="30.31" ry="26.74"/>
<text text-anchor="middle" x="179.08" y="-120.41" font-family="Times New Roman,serif" font-size="14.00">Call:</text>
<text text-anchor="middle" x="179.08" y="-105.41" font-family="Times New Roman,serif" font-size="14.00">left</text>
</g>
<!-- 2079868795200&#45;&gt;2079868794240 -->
<g id="edge3" class="edge">
<title>2079868795200&#45;&gt;2079868794240</title>
<path fill="none" stroke="black" d="M257.84,-181.65C244.1,-170.47 224.97,-154.92 209,-141.93"/>
<polygon fill="black" stroke="black" points="210.95,-139.01 200.98,-135.42 206.53,-144.44 210.95,-139.01"/>
</g>
<!-- 2079868794576 -->
<g id="node6" class="node">
<title>2079868794576</title>
<ellipse fill="none" stroke="black" cx="276.08" cy="-116.61" rx="30.31" ry="26.74"/>
<text text-anchor="middle" x="276.08" y="-120.41" font-family="Times New Roman,serif" font-size="14.00">Call:</text>
<text text-anchor="middle" x="276.08" y="-105.41" font-family="Times New Roman,serif" font-size="14.00">fd</text>
</g>
<!-- 2079868795200&#45;&gt;2079868794576 -->
<g id="edge5" class="edge">
<title>2079868795200&#45;&gt;2079868794576</title>
<path fill="none" stroke="black" d="M276.08,-179.37C276.08,-171.88 276.08,-162.79 276.08,-153.91"/>
<polygon fill="black" stroke="black" points="279.58,-153.69 276.08,-143.69 272.58,-153.69 279.58,-153.69"/>
</g>
<!-- 2079868794768 -->
<g id="node8" class="node">
<title>2079868794768</title>
<ellipse fill="none" stroke="black" cx="372.08" cy="-116.61" rx="30.31" ry="26.74"/>
<text text-anchor="middle" x="372.08" y="-120.41" font-family="Times New Roman,serif" font-size="14.00">Call:</text>
<text text-anchor="middle" x="372.08" y="-105.41" font-family="Times New Roman,serif" font-size="14.00">left</text>
</g>
<!-- 2079868795200&#45;&gt;2079868794768 -->
<g id="edge7" class="edge">
<title>2079868795200&#45;&gt;2079868794768</title>
<path fill="none" stroke="black" d="M294.59,-181.27C308.14,-170.14 326.81,-154.81 342.42,-141.98"/>
<polygon fill="black" stroke="black" points="344.76,-144.58 350.27,-135.53 340.32,-139.18 344.76,-144.58"/>
</g>
<!-- 2079868794960 -->
<g id="node10" class="node">
<title>2079868794960</title>
<ellipse fill="none" stroke="black" cx="477.08" cy="-116.61" rx="30.31" ry="26.74"/>
<text text-anchor="middle" x="477.08" y="-120.41" font-family="Times New Roman,serif" font-size="14.00">Call:</text>
<text text-anchor="middle" x="477.08" y="-105.41" font-family="Times New Roman,serif" font-size="14.00">fd</text>
</g>
<!-- 2079868795200&#45;&gt;2079868794960 -->
<g id="edge9" class="edge">
<title>2079868795200&#45;&gt;2079868794960</title>
<path fill="none" stroke="black" d="M304.46,-185.35C339.97,-171.41 400.88,-147.51 440.04,-132.14"/>
<polygon fill="black" stroke="black" points="441.47,-135.34 449.5,-128.43 438.91,-128.83 441.47,-135.34"/>
</g>
<!-- 2079868793952 -->
<g id="node3" class="node">
<title>2079868793952</title>
<ellipse fill="none" stroke="black" cx="48.08" cy="-26.87" rx="48.17" ry="26.74"/>
<text text-anchor="middle" x="48.08" y="-30.67" font-family="Times New Roman,serif" font-size="14.00">Constant:</text>
<text text-anchor="middle" x="48.08" y="-15.67" font-family="Times New Roman,serif" font-size="14.00">100</text>
</g>
<!-- 2079868794048&#45;&gt;2079868793952 -->
<g id="edge2" class="edge">
<title>2079868794048&#45;&gt;2079868793952</title>
<path fill="none" stroke="black" d="M73.15,-90.7C69.67,-81.98 65.69,-72.02 61.95,-62.63"/>
<polygon fill="black" stroke="black" points="65.12,-61.14 58.17,-53.15 58.62,-63.73 65.12,-61.14"/>
</g>
<!-- 2079868794144 -->
<g id="node5" class="node">
<title>2079868794144</title>
<ellipse fill="none" stroke="black" cx="162.08" cy="-26.87" rx="48.17" ry="26.74"/>
<text text-anchor="middle" x="162.08" y="-30.67" font-family="Times New Roman,serif" font-size="14.00">Constant:</text>
<text text-anchor="middle" x="162.08" y="-15.67" font-family="Times New Roman,serif" font-size="14.00">90</text>
</g>
<!-- 2079868794240&#45;&gt;2079868794144 -->
<g id="edge4" class="edge">
<title>2079868794240&#45;&gt;2079868794144</title>
<path fill="none" stroke="black" d="M174.07,-89.76C172.5,-81.62 170.73,-72.48 169.04,-63.77"/>
<polygon fill="black" stroke="black" points="172.45,-62.99 167.11,-53.84 165.58,-64.32 172.45,-62.99"/>
</g>
<!-- 2079868794480 -->
<g id="node7" class="node">
<title>2079868794480</title>
<ellipse fill="none" stroke="black" cx="276.08" cy="-26.87" rx="48.17" ry="26.74"/>
<text text-anchor="middle" x="276.08" y="-30.67" font-family="Times New Roman,serif" font-size="14.00">Constant:</text>
<text text-anchor="middle" x="276.08" y="-15.67" font-family="Times New Roman,serif" font-size="14.00">100</text>
</g>
<!-- 2079868794576&#45;&gt;2079868794480 -->
<g id="edge6" class="edge">
<title>2079868794576&#45;&gt;2079868794480</title>
<path fill="none" stroke="black" d="M276.08,-89.29C276.08,-81.32 276.08,-72.43 276.08,-63.94"/>
<polygon fill="black" stroke="black" points="279.58,-63.87 276.08,-53.87 272.58,-63.87 279.58,-63.87"/>
</g>
<!-- 2079868794672 -->
<g id="node9" class="node">
<title>2079868794672</title>
<ellipse fill="none" stroke="black" cx="390.08" cy="-26.87" rx="48.17" ry="26.74"/>
<text text-anchor="middle" x="390.08" y="-30.67" font-family="Times New Roman,serif" font-size="14.00">Constant:</text>
<text text-anchor="middle" x="390.08" y="-15.67" font-family="Times New Roman,serif" font-size="14.00">90</text>
</g>
<!-- 2079868794768&#45;&gt;2079868794672 -->
<g id="edge8" class="edge">
<title>2079868794768&#45;&gt;2079868794672</title>
<path fill="none" stroke="black" d="M377.39,-89.76C379.06,-81.62 380.93,-72.48 382.72,-63.77"/>
<polygon fill="black" stroke="black" points="386.17,-64.34 384.76,-53.84 379.32,-62.93 386.17,-64.34"/>
</g>
<!-- 2079868794864 -->
<g id="node11" class="node">
<title>2079868794864</title>
<ellipse fill="none" stroke="black" cx="504.08" cy="-26.87" rx="48.17" ry="26.74"/>
<text text-anchor="middle" x="504.08" y="-30.67" font-family="Times New Roman,serif" font-size="14.00">Constant:</text>
<text text-anchor="middle" x="504.08" y="-15.67" font-family="Times New Roman,serif" font-size="14.00">100</text>
</g>
<!-- 2079868794960&#45;&gt;2079868794864 -->
<g id="edge10" class="edge">
<title>2079868794960&#45;&gt;2079868794864</title>
<path fill="none" stroke="black" d="M484.89,-90.23C487.5,-81.76 490.46,-72.16 493.25,-63.07"/>
<polygon fill="black" stroke="black" points="496.6,-64.08 496.2,-53.5 489.91,-62.02 496.6,-64.08"/>
</g>
</g>
</svg>
