<?xml version="1.0" ?><!DOCTYPE svg  PUBLIC '-//W3C//DTD SVG 1.1//EN'  'http://www.w3.org/Graphics/SVG/1.1/DTD/svg11.dtd'><svg xmlns="http://www.w3.org/2000/svg" width="623.000" height="628.000" viewBox="-411.000 -611.000 623.000 628.000"><polyline points="0.0,-0.0 100.0,-0.0 -100.0,-0.0 -68.64146101970397,-1.643431389517999 -37.62649275467221,-6.5557197798583084 -7.2949016875157895,-14.683045111453929 22.020992922740042,-25.93636270721973 49.99999999999997,-40.1923788646684 76.33557568774191,-57.29490168751576 100.73918190765743,-77.05655235678171 122.94344764321822,-99.2608180923425 142.70509831248415,-123.66442431225802 159.80762113533152,-149.99999999999994 174.0636372927802,-177.97900707725987 185.31695488854598,-207.29490168751568 193.4442802201416,-237.62649275467209 198.3565686104819,-268.6414610197038 199.9999999999999,-299.99999999999983 198.3565686104819,-331.35853898029586 193.4442802201416,-362.3735072453276 185.31695488854598,-392.705098312484 174.0636372927802,-422.02099292273977 159.80762113533152,-449.99999999999966 142.70509831248418,-476.33557568774154 122.94344764321825,-500.73918190765704 100.73918190765747,-522.9434476432178 76.33557568774198,-542.7050983124838 50.00000000000008,-559.8076211353311 22.02099292274018,-574.0636372927798 -7.294901687515608,-585.3169548885456 -37.626492754671986,-593.4442802201412 -68.64146101970368,-598.3565686104815 -99.99999999999966,-599.9999999999995 -131.35853898029563,-598.3565686104815 -162.37350724532735,-593.4442802201412 -192.7050983124837,-585.3169548885456 -222.02099292273948,-574.0636372927798 -249.99999999999937,-559.8076211353311 -276.33557568774125,-542.7050983124839 -300.7391819076567,-522.943447643218 -322.94344764321744,-500.7391819076572 -342.70509831248336,-476.3355756877417 -359.8076211353307,-449.99999999999983" stroke="#000" fill="none" stroke-linecap="round" stroke-linejoin="round"/><polyline points="-359.8076211353307,-449.99999999999983 -374.06363729277933,-422.02099292273994 -385.3169548885451,-392.70509831248415 -393.44428022014074,-362.3735072453278 -398.356568610481,-331.3585389802961 -399.99999999999903,-300.0000000000001 -398.356568610481,-268.64146101970414 -393.44428022014074,-237.62649275467246 -385.3169548885451,-207.2949016875161 -374.06363729277933,-177.97900707726035 -359.8076211353307,-150.00000000000048 -342.70509831248336,-123.66442431225862 -322.94344764321744,-99.26081809234316 -300.7391819076567,-77.05655235678242 -276.33557568774125,-57.29490168751653 -249.99999999999937,-40.192378864669216 -222.0209929227395,-25.93636270722059 -192.70509831248376,-14.683045111454826 -162.37350724532743,-6.555719779859238 -131.35853898029578,-1.643431389518951 -99.99999999999983,-9.64561763794336e-13" stroke="#000" fill="none" stroke-linecap="round" stroke-linejoin="round"/><line x1="0.0" y1="0.0" x2="0.0" y2="0.0" stroke="none" fill="none" stroke-linecap="round"/><polygon points="-99.99999999999983,-9.64561763794336e-13 -108.99999999999983,-5.000000000000963 -106.99999999999983,-9.62910307045206e-13 -108.99999999999983,4.999999999999037" stroke="#000" fill="#000" fill-rule="evenodd" stroke-linejoin="round"/></svg>